<?xml version="1.0" encoding="UTF-8"?>
<svg id="Layer_1" data-name="Layer 1" xmlns="http://www.w3.org/2000/svg" viewBox="0 0 124.83 46.09">
  <defs>
    <style>
      .cls-1 {
        fill: #4abaeb;
      }
    </style>
  </defs>
  <path class="cls-1" d="M6.79,2.01l10.79,27.69L28.84,0l10.79,29.7L51.08,2.01h6.79l-18.51,44.05-10.65-29.35-11.11,29.38L0,2.01H6.79Z"/>
  <path class="cls-1" d="M85.4,8.18l-5.07,3c-.95-1.65-1.85-2.72-2.71-3.22-.89-.57-2.05-.86-3.46-.86-1.73,0-3.17,.49-4.32,1.48-1.15,.97-1.72,2.18-1.72,3.65,0,2.02,1.5,3.65,4.51,4.88l4.13,1.69c3.36,1.36,5.82,3.02,7.38,4.98s2.33,4.36,2.33,7.2c0,3.81-1.27,6.96-3.81,9.44-2.56,2.5-5.73,3.76-9.52,3.76-3.59,0-6.56-1.06-8.91-3.19-2.31-2.13-3.75-5.12-4.32-8.99l6.33-1.4c.29,2.43,.79,4.11,1.5,5.04,1.29,1.79,3.17,2.68,5.63,2.68,1.95,0,3.57-.65,4.86-1.96,1.29-1.31,1.93-2.96,1.93-4.96,0-.8-.11-1.54-.34-2.21-.22-.67-.57-1.29-1.05-1.85-.47-.56-1.09-1.09-1.84-1.58-.75-.49-1.65-.96-2.68-1.41l-4-1.66c-5.67-2.4-8.5-5.9-8.5-10.52,0-3.11,1.19-5.71,3.57-7.81,2.38-2.11,5.34-3.17,8.88-3.17,4.78,0,8.5,2.33,11.19,6.98Z"/>
  <path class="cls-1" d="M100.26,18.54L116.38,2.01h8.34l-18.73,18.75,18.83,22.67h-8.37l-14.92-18.43-1.29,1.29v17.14h-6.25V2.01h6.25V18.54Z"/>
</svg>