<?xml version="1.0" encoding="UTF-8"?>
<svg id="Layer_1" data-name="Layer 1" xmlns="http://www.w3.org/2000/svg" viewBox="0 0 347.65 46.09">
  <path d="M6.79,2.01l10.79,27.69L28.84,0l10.79,29.7L51.08,2.01h6.79l-18.51,44.05-10.65-29.35-11.11,29.38L0,2.01H6.79Z" style="fill: #4abaeb;"/>
  <path d="M85.4,8.18l-5.07,3c-.95-1.65-1.85-2.72-2.71-3.22-.89-.57-2.05-.86-3.46-.86-1.73,0-3.17,.49-4.32,1.48-1.15,.97-1.72,2.18-1.72,3.65,0,2.02,1.5,3.65,4.51,4.88l4.13,1.69c3.36,1.36,5.82,3.02,7.38,4.98s2.33,4.36,2.33,7.2c0,3.81-1.27,6.96-3.81,9.44-2.56,2.5-5.73,3.76-9.52,3.76-3.59,0-6.56-1.06-8.91-3.19-2.31-2.13-3.75-5.12-4.32-8.99l6.33-1.4c.29,2.43,.79,4.11,1.5,5.04,1.29,1.79,3.17,2.68,5.63,2.68,1.95,0,3.57-.65,4.86-1.96,1.29-1.31,1.93-2.96,1.93-4.96,0-.8-.11-1.54-.34-2.21-.22-.67-.57-1.29-1.05-1.85-.47-.56-1.09-1.09-1.84-1.58-.75-.49-1.65-.96-2.68-1.41l-4-1.66c-5.67-2.4-8.5-5.9-8.5-10.52,0-3.11,1.19-5.71,3.57-7.81,2.38-2.11,5.34-3.17,8.88-3.17,4.78,0,8.5,2.33,11.19,6.98Z" style="fill: #4abaeb;"/>
  <path d="M100.26,18.54L116.38,2.01h8.34l-18.73,18.75,18.83,22.67h-8.37l-14.92-18.43-1.29,1.29v17.14h-6.25V2.01h6.25V18.54Z" style="fill: #4abaeb;"/>
  <path d="M177.98,4.24v7.4c-3.61-3.02-7.35-4.53-11.21-4.53-4.26,0-7.84,1.53-10.76,4.59-2.93,3.04-4.4,6.76-4.4,11.16s1.47,8.01,4.4,11c2.93,2.99,6.53,4.48,10.79,4.48,2.2,0,4.07-.36,5.61-1.07,.86-.36,1.75-.84,2.67-1.45,.92-.61,1.89-1.34,2.91-2.2v7.54c-3.58,2.02-7.33,3.03-11.27,3.03-5.92,0-10.97-2.07-15.16-6.2-4.17-4.17-6.25-9.19-6.25-15.08,0-5.28,1.74-9.98,5.23-14.11,4.29-5.06,9.85-7.59,16.66-7.59,3.72,0,7.31,1.01,10.79,3.03Z" style="fill: #4abaeb;"/>
  <path d="M184.72,17.3h6.04v2.33c1.11-1.16,2.09-1.96,2.95-2.39,.88-.45,1.91-.67,3.11-.67,1.59,0,3.26,.52,4.99,1.56l-2.76,5.53c-1.15-.82-2.26-1.23-3.35-1.23-3.29,0-4.94,2.49-4.94,7.46v13.55h-6.04V17.3Z" style="fill: #4abaeb;"/>
  <path d="M228.69,31.79h-18.73c.16,2.15,.86,3.85,2.09,5.12,1.23,1.25,2.82,1.88,4.75,1.88,1.5,0,2.75-.36,3.73-1.07,.97-.72,2.07-2.04,3.3-3.97l5.1,2.84c-.79,1.34-1.62,2.49-2.5,3.45-.88,.96-1.82,1.74-2.82,2.36-1,.62-2.08,1.07-3.25,1.35-1.16,.29-2.42,.43-3.78,.43-3.9,0-7.03-1.25-9.39-3.76-2.36-2.52-3.54-5.87-3.54-10.03s1.14-7.48,3.43-10.03c2.31-2.52,5.37-3.78,9.18-3.78s6.89,1.23,9.12,3.68c2.22,2.43,3.33,5.8,3.33,10.11l-.03,1.42Zm-6.2-4.94c-.84-3.22-2.87-4.83-6.09-4.83-.73,0-1.42,.11-2.06,.34-.64,.22-1.23,.55-1.76,.97-.53,.42-.98,.93-1.35,1.52-.38,.59-.66,1.26-.86,2.01h12.13Z" style="fill: #4abaeb;"/>
  <path d="M254.55,17.3h6.06v26.13h-6.06v-2.74c-2.49,2.33-5.16,3.49-8.02,3.49-3.61,0-6.6-1.31-8.96-3.92-2.34-2.66-3.51-5.99-3.51-9.98s1.17-7.18,3.51-9.79,5.28-3.92,8.8-3.92c3.04,0,5.77,1.25,8.18,3.76v-3.03Zm-14.33,12.99c0,2.5,.67,4.54,2.01,6.12,1.38,1.59,3.11,2.39,5.2,2.39,2.24,0,4.04-.77,5.42-2.31,1.38-1.59,2.07-3.61,2.07-6.06s-.69-4.47-2.07-6.06c-1.38-1.56-3.17-2.33-5.37-2.33-2.08,0-3.81,.79-5.2,2.36-1.38,1.59-2.07,3.56-2.07,5.9Z" style="fill: #4abaeb;"/>
  <path d="M274.46,22.94v20.5h-6.04V22.94h-2.58v-5.63h2.58V7.73h6.04v9.58h4.7v5.63h-4.7Z" style="fill: #4abaeb;"/>
  <path d="M282.35,6.44c0-1.06,.38-1.97,1.15-2.74,.77-.77,1.69-1.15,2.76-1.15s2.02,.38,2.79,1.15c.77,.75,1.15,1.67,1.15,2.76s-.38,2.02-1.15,2.79c-.75,.77-1.67,1.15-2.76,1.15s-2.02-.38-2.79-1.15-1.15-1.71-1.15-2.82Zm6.95,10.87v26.13h-6.04V17.3h6.04Z" style="fill: #4abaeb;"/>
  <path d="M300.19,17.3l6.76,14.68,6.73-14.68h6.79l-13.58,27.93-13.47-27.93h6.76Z" style="fill: #4abaeb;"/>
  <path d="M347.41,31.79h-18.73c.16,2.15,.86,3.85,2.09,5.12,1.23,1.25,2.82,1.88,4.75,1.88,1.5,0,2.75-.36,3.73-1.07,.97-.72,2.07-2.04,3.3-3.97l5.1,2.84c-.79,1.34-1.62,2.49-2.5,3.45-.88,.96-1.82,1.74-2.82,2.36-1,.62-2.08,1.07-3.25,1.35-1.16,.29-2.42,.43-3.78,.43-3.9,0-7.03-1.25-9.39-3.76-2.36-2.52-3.54-5.87-3.54-10.03s1.14-7.48,3.43-10.03c2.31-2.52,5.37-3.78,9.18-3.78s6.89,1.23,9.12,3.68c2.22,2.43,3.33,5.8,3.33,10.11l-.03,1.42Zm-6.2-4.94c-.84-3.22-2.87-4.83-6.09-4.83-.73,0-1.42,.11-2.07,.34-.64,.22-1.23,.55-1.76,.97-.53,.42-.98,.93-1.35,1.52-.38,.59-.66,1.26-.86,2.01h12.13Z" style="fill: #4abaeb;"/>
</svg>