<?xml version="1.0" encoding="UTF-8"?>
<svg id="OBJECTS" xmlns="http://www.w3.org/2000/svg" xmlns:xlink="http://www.w3.org/1999/xlink" viewBox="0 0 416 416">
  <defs>
    <clipPath id="clippath">
      <path d="M151.57,68.3l-9.11,.3c-.31-12.69,8.51-23.17,19.71-23.42l9.11-.3c-11.19,.25-20.02,10.73-19.71,23.42Z" style="fill: none;"/>
    </clipPath>
    <clipPath id="clippath-1">
      <path d="M178.44,334.6l-9.11,.3c-11.19,.25-20.53-9.83-20.84-22.51l9.11-.3c.31,12.68,9.65,22.76,20.84,22.51Z" style="fill: none;"/>
    </clipPath>
    <linearGradient id="Degradado_sin_nombre_6" data-name="Degradado sin nombre 6" x1="315.64" y1="225.02" x2="313.32" y2="208.55" gradientUnits="userSpaceOnUse">
      <stop offset="0" stop-color="#d37897" stop-opacity="0"/>
      <stop offset=".94" stop-color="#e26356" stop-opacity=".7"/>
    </linearGradient>
  </defs>
  <g>
    <path d="M347.68,271.82c-.39,3.76,1.48,8.38-1.38,10.85-1.72,1.48-4.42,1.3-6.14,2.76-2.91,2.47-.99,7.24,1.43,10.2,2.42,2.95,5.38,6.62,3.88,10.13-.76,1.78-2.51,2.92-3.63,4.51-2.47,3.52-1.28,8.56,1.31,12,6.69,8.85,20.69,9.38,30.09,3.5,3.41-2.13,6.51-5.14,7.63-9,1.12-3.86-.27-8.63-3.88-10.42-1.46-.72-3.33-1.09-4.02-2.56-1.18-2.52,2.14-4.57,4.21-6.43,3.91-3.52,3.59-10.63-.62-13.78-1.78-1.33-4.2-2.16-5.03-4.22-.59-1.46-.19-3.11-.16-4.69,.2-11.95-22.43-15.16-23.7-2.84Z" style="fill: #5bb59b;"/>
    <rect x="358.94" y="279.28" width=".62" height="49.33" style="fill: #0553dd;"/>
    <polygon points="359.23 298.77 348.78 289.99 349.18 289.52 359.26 297.99 371.8 289.09 372.16 289.6 359.23 298.77" style="fill: #0553dd;"/>
    <polygon points="359.23 319.71 348.78 310.94 349.18 310.46 359.26 318.94 371.8 310.04 372.16 310.54 359.23 319.71" style="fill: #0553dd;"/>
  </g>
  <g>
    <path d="M101.01,159.18c-.7,6.79,2.68,15.14-2.49,19.59-3.1,2.67-7.98,2.34-11.1,4.99-5.26,4.47-1.78,13.08,2.59,18.41,4.37,5.34,9.73,11.95,7.01,18.3-1.38,3.22-4.54,5.28-6.55,8.14-4.47,6.36-2.31,15.46,2.37,21.67,12.08,15.98,37.37,16.95,54.36,6.33,6.16-3.85,11.75-9.28,13.78-16.26s-.5-15.58-7-18.81c-2.63-1.31-6.01-1.96-7.25-4.62-2.13-4.55,3.87-8.26,7.6-11.62,7.06-6.35,6.48-19.21-1.12-24.9-3.22-2.41-7.58-3.89-9.09-7.62-1.07-2.64-.34-5.62-.29-8.48,.36-21.58-40.51-27.38-42.81-5.13Z" style="fill: #63a590;"/>
    <rect x="121.35" y="172.66" width="1.11" height="143.54" style="fill: #0553dd;"/>
    <polygon points="121.88 207.85 103 192 103.72 191.15 121.93 206.45 144.58 190.38 145.22 191.29 121.88 207.85" style="fill: #0553dd;"/>
    <polygon points="121.88 245.69 103 229.83 103.72 228.98 121.93 244.28 144.58 228.21 145.22 229.12 121.88 245.69" style="fill: #0553dd;"/>
  </g>
  <g style="isolation: isolate;">
    <g style="isolation: isolate;">
      <g style="clip-path: url(#clippath);">
        <g style="isolation: isolate;">
          <path d="M151.57,68.3l-9.11,.3c-.1-4.11,.76-7.99,2.34-11.36l9.11-.3c-1.59,3.37-2.44,7.25-2.34,11.36" style="fill: #15289e;"/>
          <path d="M153.91,56.94l-9.11,.3c1.28-2.72,3.03-5.11,5.14-7.03l9.11-.3c-2.11,1.92-3.86,4.31-5.14,7.03" style="fill: #15289e;"/>
          <path d="M159.05,49.91l-9.11,.3c3.35-3.05,7.58-4.92,12.23-5.02l9.11-.3c-4.65,.1-8.88,1.97-12.23,5.02" style="fill: #15289e;"/>
        </g>
      </g>
    </g>
    <polygon points="157.6 312.09 148.48 312.39 142.46 68.6 151.57 68.3 157.6 312.09" style="fill: #15289e;"/>
    <g style="isolation: isolate;">
      <g style="clip-path: url(#clippath-1);">
        <path d="M178.44,334.6l-9.11,.3c-11.19,.25-20.53-9.83-20.84-22.51l9.11-.3c.31,12.68,9.65,22.76,20.84,22.51" style="fill: #15289e;"/>
      </g>
    </g>
    <polygon points="259.93 91.05 260.13 98.92 221.22 99.79 221.03 91.92 259.93 91.05" style="fill: #afc6f5;"/>
    <path d="M208.11,88.94c3.77-.08,6.94,3.34,7.05,7.61l.81,32.79c.11,4.27-2.89,7.82-6.66,7.91l-34.18,.77c-3.77,.08-6.94-3.33-7.04-7.6l-.81-32.79c-.11-4.27,2.89-7.83,6.66-7.92l34.18-.77Z" style="fill: #f6a091;"/>
    <path d="M268.18,76.35l5.4,218.74-108.41,2.43-5.4-218.74,108.41-2.43Zm-1.48,197.81l-2.14-86.43-95.02,2.13,2.14,86.43,95.02-2.13M167.27,97.62l.81,32.79c.11,4.27,3.28,7.68,7.04,7.6l34.18-.77c3.77-.08,6.77-3.64,6.66-7.91l-.81-32.79c-.11-4.27-3.28-7.69-7.04-7.61l-34.18,.77c-3.77,.08-6.77,3.65-6.66,7.92m98.29,78.33l-.19-7.87-96.3,2.16,.19,7.87,96.3-2.16m-.36-14.41l-.19-7.87-96.3,2.16,.19,7.87,96.3-2.16m-43.82-55.22l.19,7.87,38.91-.87-.19-7.87-38.91,.87m-.36-14.41l.19,7.87,38.91-.87-.19-7.87-38.91,.87" style="fill: #fff;"/>
    <polygon points="260.29 105.46 260.48 113.32 221.58 114.2 221.38 106.33 260.29 105.46" style="fill: #afc6f5;"/>
    <path d="M218.73,51.82c.99-.02,1.83,.88,1.85,2.01,.03,1.13-.76,2.06-1.75,2.08-1,.02-1.83-.88-1.86-2-.03-1.14,.76-2.07,1.76-2.09Z" style="fill: #15289e;"/>
    <path d="M228.7,61.5c.62-.01,1.15,.55,1.16,1.26,.02,.71-.48,1.3-1.1,1.31l-19.45,.44c-.62,.01-1.15-.55-1.16-1.26-.02-.71,.48-1.3,1.1-1.31l19.45-.44Z" style="fill: #15289e;"/>
    <path d="M220.75,302.84c5-.11,9.18,4.4,9.32,10.06,.14,5.66-3.82,10.35-8.81,10.46-5,.11-9.18-4.4-9.32-10.06-.14-5.67,3.82-10.36,8.81-10.47Z" style="fill: #fff;"/>
    <path d="M199.34,60.97c1.16-.03,2.14,1.03,2.17,2.35,.03,1.33-.89,2.41-2.05,2.44-1.16,.03-2.14-1.02-2.17-2.35-.03-1.32,.89-2.41,2.05-2.44Z" style="fill: #15289e;"/>
    <polygon points="264.57 187.73 266.7 274.16 171.68 276.3 169.55 189.86 264.57 187.73" style="fill: #afc6f5;"/>
    <path d="M254.93,43.01c11.19-.25,20.53,9.82,20.84,22.51l6.02,243.79c.31,12.68-8.51,23.17-19.71,23.42l-83.65,1.88c-11.19,.25-20.53-9.83-20.84-22.51l-6.02-243.79c-.31-12.69,8.51-23.17,19.71-23.42l83.65-1.88Zm19.35,252.83l-5.44-220.25-109.76,2.47,5.44,220.25,109.76-2.47m-53,28.29c5.37-.12,9.61-5.16,9.46-11.24-.15-6.09-4.64-10.93-10.01-10.81-5.37,.12-9.61,5.16-9.46,11.25,.15,6.08,4.64,10.92,10.01,10.8m-12.03-262.18c-.62,.01-1.12,.6-1.1,1.31,.02,.71,.54,1.27,1.16,1.26l19.45-.44c.62-.01,1.12-.6,1.1-1.31-.02-.71-.54-1.27-1.16-1.26l-19.45,.44m-9.9-.97c-1.16,.03-2.09,1.12-2.05,2.44,.03,1.33,1.01,2.37,2.17,2.35,1.16-.03,2.09-1.11,2.05-2.44-.03-1.32-1.01-2.37-2.17-2.35m19.39-9.15c-1,.02-1.79,.96-1.76,2.09,.03,1.13,.86,2.02,1.86,2,.99-.02,1.78-.96,1.75-2.08-.03-1.14-.86-2.03-1.85-2.01" style="fill: #0d62f9;"/>
    <polygon points="265.01 153.68 265.2 161.55 168.9 163.71 168.71 155.84 265.01 153.68" style="fill: #afc6f5;"/>
    <polygon points="265.36 168.09 265.56 175.95 169.26 178.12 169.06 170.25 265.36 168.09" style="fill: #afc6f5;"/>
  </g>
  <ellipse cx="315.97" cy="345.08" rx="72.79" ry="11.16" style="fill: #e0e4ed;"/>
  <g>
    <path d="M344.63,210.71l-3.92-29.16s-25.28-4.26-33.46-14.39c-7.64-9.45-12.15-17.63-12.15-17.63l-12.62,9.7s13.59,33.97,39.79,46.58" style="fill: #e26356;"/>
    <path d="M288.15,120.95h0s-6.77-.67-6.77-.67c-.21-.02-.43-.03-.65-.02-.02,0-.04,0-.06,0-.29,.01-.58,.04-.87,.1l-26.62,5.61c-.1,.02-.21,.05-.31,.07-.06,.02-.11,.04-.17,.06-.16,.05-.33,.11-.49,.17-.1,.04-.2,.08-.3,.13-.16,.08-.33,.17-.49,.26-.06,.04-.13,.06-.19,.1-.02,.01-.04,.03-.06,.05-.25,.16-.5,.34-.74,.54-.03,.03-.06,.06-.1,.09-.2,.18-.4,.37-.6,.57-.07,.07-.14,.15-.21,.23-.15,.17-.3,.35-.44,.54-.07,.09-.13,.17-.19,.26-.16,.23-.32,.46-.46,.71-.03,.04-.06,.08-.08,.12,0,0-.01,.02-.02,.03-.17,.29-.33,.59-.47,.91-.04,.08-.07,.17-.11,.26-.1,.23-.2,.47-.29,.72-.02,.05-.04,.09-.06,.14-.02,.04-.02,.09-.04,.14-.16,.46-.3,.94-.41,1.44,0,.02-.01,.04-.02,.05-.01,.05-.01,.1-.02,.15-.08,.4-.15,.81-.2,1.23,0,.06-.02,.11-.03,.17,0,.03,0,.06,0,.08-.04,.46-.06,.92-.06,1.39,0,.04,0,.08,0,.13,0,.22,.01,.43,.02,.65l2.24,36.75c.02,.37,.06,.72,.11,1.07,0,.04,0,.09,.01,.13,.01,.1,.04,.19,.05,.28,.02,.11,.04,.22,.06,.33,.03,.15,.07,.3,.1,.45,.03,.1,.05,.21,.08,.31,.04,.16,.09,.31,.14,.46,.03,.09,.05,.18,.09,.27,.06,.18,.13,.35,.2,.52,.02,.06,.04,.11,.07,.17,.1,.22,.2,.44,.3,.65,.03,.05,.05,.09,.08,.14,.08,.16,.17,.31,.26,.46,.04,.07,.09,.14,.14,.21,.08,.12,.16,.24,.24,.36,.05,.07,.11,.14,.16,.21,.08,.1,.16,.21,.24,.3,.06,.07,.12,.14,.18,.2,.08,.09,.17,.18,.26,.26,.07,.06,.13,.12,.2,.18,.09,.08,.18,.16,.27,.23,.07,.06,.14,.11,.21,.16,.09,.07,.19,.13,.28,.2,.07,.05,.14,.1,.22,.14,.1,.06,.2,.11,.3,.17,.07,.04,.15,.08,.22,.11,.11,.05,.22,.09,.32,.14,.07,.03,.14,.06,.22,.08,.12,.04,.25,.07,.37,.11,.06,.02,.12,.04,.19,.05,.19,.04,.37,.07,.56,.09,0,0,0,0,.01,0l6.77,.67c-.19-.02-.39-.05-.58-.09-.06-.01-.12-.03-.18-.05-.13-.03-.25-.07-.38-.11-.07-.02-.14-.06-.21-.08-.11-.04-.22-.09-.33-.14-.07-.03-.15-.07-.22-.11-.1-.05-.2-.11-.3-.17-.07-.04-.15-.09-.22-.14-.1-.06-.19-.13-.28-.2-.07-.05-.14-.11-.21-.16-.09-.07-.18-.15-.27-.23-.07-.06-.13-.12-.2-.18-.09-.09-.17-.17-.26-.26-.06-.07-.12-.13-.18-.2-.08-.1-.16-.2-.24-.3-.06-.07-.11-.14-.16-.21-.08-.11-.16-.23-.24-.35-.05-.07-.09-.14-.14-.21-.09-.15-.18-.31-.26-.47-.03-.05-.05-.09-.08-.14-.11-.21-.21-.43-.3-.65-.02-.06-.04-.11-.07-.17-.07-.17-.14-.34-.2-.52-.03-.09-.06-.18-.09-.27-.05-.15-.1-.3-.14-.46-.03-.1-.05-.21-.08-.31-.04-.15-.07-.3-.1-.45-.02-.11-.04-.22-.06-.33-.02-.13-.05-.27-.07-.41-.05-.35-.09-.7-.11-1.07l-2.24-36.75c-.02-.26-.02-.52-.02-.77,0-.47,.02-.93,.06-1.39,0-.08,.02-.17,.03-.25,.05-.42,.11-.83,.2-1.23,.01-.07,.02-.13,.04-.2,.11-.49,.25-.97,.41-1.44,.03-.09,.06-.19,.1-.28,.09-.24,.19-.48,.29-.72,.04-.09,.07-.17,.11-.26,.15-.31,.3-.62,.47-.91,.03-.05,.06-.1,.1-.15,.15-.24,.3-.48,.46-.71,.06-.09,.13-.17,.19-.26,.14-.19,.29-.37,.45-.54,.07-.08,.14-.16,.21-.23,.19-.2,.39-.39,.6-.57,.03-.03,.06-.06,.1-.09,.24-.2,.49-.38,.74-.54,.08-.05,.17-.1,.25-.15,.16-.09,.32-.18,.49-.26,.1-.05,.2-.09,.29-.13,.16-.07,.32-.12,.49-.17,.16-.05,.32-.1,.48-.14l26.62-5.61c.29-.06,.58-.09,.87-.1,.24,0,.48,0,.71,.02h0Z" style="fill: #1865ed;"/>
    <path d="M286.58,121.04c3.92-.83,7.41,2.93,7.74,8.36l2.24,36.75c.33,5.43-2.61,10.54-6.54,11.37l-26.62,5.61c-3.93,.83-7.41-2.93-7.74-8.36l-2.24-36.75c-.33-5.43,2.61-10.54,6.54-11.37l26.62-5.61Z" style="fill: #3878ff;"/>
    <path d="M336.84,331.58c-.13,2.05-.31,4.26-1.62,5.85-1.54,1.87-4.17,2.35-6.57,2.7-3.5,.51-6.99,1.03-10.49,1.54-.18,.52,.43,.95,.94,1.13,2.59,.88,5.4,.49,8.12,.21,3.15-.33,6.31-.51,9.47-.54,1.41-.01,3.08-.14,3.79-1.35,.53-.9,.29-2.04,.16-3.08-.38-3.18,.51-6.42,.06-9.58-.05-.37-.17-.79-.52-.92-.18-.07-.37-.04-.56,0-2.68,.54-2.65,1.65-2.8,4.05Z" style="fill: #f9ccda;"/>
    <path d="M337.79,339.82c-2.61,1.59-5.25,2.02-8.28,1.65-.18-.02-1.2-.25-1.39-.27-.11-.58-.05-1.15-.53-1.13-2.19,.08-4.38,.27-6.55,.55-.69,.09-3.31,.15-3.59,.69-.25,.48-.09,1.09,.26,1.5,.35,.41,.85,.66,1.35,.85,2.48,.95,5.23,.83,7.88,.71,3.27-.15,6.53-.31,9.8-.46,1.11-.05,2.29-.12,3.22-.73,1.38-.89,1.85-2.69,1.88-4.33,.06-2.98-3.12,.41-4.06,.98Z" style="fill: #004fc1;"/>
    <path d="M285.68,337.07c-.4,2.02-.87,4.18-2.37,5.58-1.77,1.66-4.44,1.78-6.87,1.82-3.53,.05-7.07,.1-10.6,.15-.25,.49,.3,1,.79,1.24,2.45,1.21,5.29,1.2,8.02,1.28,3.16,.09,6.32,.33,9.46,.71,1.4,.17,3.07,.27,3.94-.84,.65-.83,.55-1.99,.57-3.04,.04-3.2,1.35-6.29,1.32-9.49,0-.37-.06-.8-.39-.98-.17-.09-.36-.09-.55-.07-2.72,.18-2.85,1.29-3.31,3.65Z" style="fill: #f9ccda;"/>
    <path d="M343.91,233.07s-2.37,24.26-3.26,37.57c-.89,13.32,7.8,41.67,7.5,49.36s-2.07,12.13-2.07,12.13l-18.63-.17-6.33-96.83,22.79-2.07Z" style="fill: #0553dd;"/>
    <path d="M325.73,153.61c-1.07,2.71-2.45,4.69-3.09,4.44-.64-.25-.29-2.65,.78-5.35,1.07-2.71,2.45-4.69,3.09-4.44,.64,.25,.29,2.65-.78,5.35Z" style="fill: none; stroke: #0553dd; stroke-miterlimit: 10;"/>
    <circle cx="334.95" cy="161.85" r="14.79" transform="translate(38.47 386.53) rotate(-62.95)" style="fill: #f9ccda;"/>
    <polygon points="330.95 168.96 327.74 185.35 336.79 188.75 340.35 168.35 330.95 168.96" style="fill: #f9ccda;"/>
    <path d="M344.69,229.59s-27.43,1.83-36.14,5.12c-4.49,13.7-23.91,92.7-25.79,100.9,2.94,.65,15.58,2.51,15.58,2.51,0,0,8.09-8.41,15.99-34.72,8.36-27.83,27.1-58.52,28.52-60.78,2.18-3.46,1.84-13.03,1.84-13.03Z" style="fill: #3878ff;"/>
    <path d="M256.82,166.84c-.16-.6-.36-1.23-.86-1.6-.63-.48-1.53-.37-2.27-.07-.73,.3-1.4,.76-2.17,.96-1.38,.36-3.01-.13-4.15,.72-.66,.5-.98,1.41-.76,2.21,.11,.41,.35,.78,.52,1.17,.59,1.34,.49,2.97,1.35,4.15,.66,.9,1.74,1.35,2.78,1.76,2.5,1,5,1.99,7.51,2.99,.16,.06,.35,.13,.5,.05,.13-.06,.2-.21,.25-.34,1.05-2.61,.6-3.87-.71-5.98-1.14-1.83-1.46-3.98-1.99-6.03Z" style="fill: #f9ccda;"/>
    <path d="M285.54,345.36c-2.79,1.24-5.47,1.31-8.43,.54-.18-.05-1.16-.4-1.34-.45-.03-.59,.1-1.15-.37-1.19-2.18-.2-4.38-.31-6.57-.32-.7,0-3.3-.29-3.65,.21-.31,.44-.23,1.07,.06,1.52,.29,.45,.76,.76,1.23,1.02,2.34,1.26,5.07,1.51,7.72,1.74,3.26,.28,6.51,.55,9.77,.83,1.11,.09,2.28,.18,3.29-.3,1.48-.7,2.19-2.43,2.44-4.05,.45-2.95-3.14,0-4.15,.44Z" style="fill: #004fc1;"/>
    <path d="M255.14,160.12c-.18-.47-.44-.98-.91-1.14-.57-.19-1.2,.25-1.43,.8s-.18,1.18-.12,1.78c.17,1.66,.34,3.32,.51,4.98,.1,.94,.31,2.05,1.17,2.44,.64,.29,1.45,.01,1.9-.53,.86-1.05,.29-2.29,.12-3.46-.25-1.67-.61-3.29-1.23-4.87Z" style="fill: #f9ccda;"/>
    <path d="M341.36,187.8c-.51-3.54-3.59-6.14-7.17-6.02-7.63,.25-19.17,1.09-21.07,2.1-2.36,1.25-18.38,6.17-23.29,6.17s-25.28-18.45-25.28-18.45l-9.96,10.73s18.19,22.83,24.99,25.48c6.8,2.64,28.15,2.49,28.15,2.49l.98,24.6s31.76,6.42,34.78,1.14c3.02-5.29,1.13-25.32,1.13-25.32l-3.27-22.91Z" style="fill: #f6a091;"/>
    <polygon points="307.74 210.3 321.12 208.11 308.55 230.52 307.74 210.3" style="fill: url(#Degradado_sin_nombre_6);"/>
    <path d="M321.72,156.13c-1.07,2.71-2.45,4.69-3.09,4.44-.64-.25-.29-2.65,.78-5.35,1.07-2.71,2.45-4.69,3.09-4.44,.64,.25,.29,2.65-.78,5.35Z" style="fill: none; stroke: #0553dd; stroke-miterlimit: 10;"/>
    <path d="M319.25,155.44c.59,.15,16.12,5.94,16.12,5.94" style="fill: none; stroke: #0553dd; stroke-miterlimit: 10; stroke-width: .75px;"/>
  </g>
  <path d="M333.12,156.76c.56,1.78-.59,4.12,.78,5.39,.76,.71,1.93,.66,2.94,.91,1.83,.45,3.3,2.11,3.53,3.98,.23,1.87-.8,3.84-2.47,4.72-.5,.26-1.07,.45-1.47,.84-.77,.76-.71,2.03-.34,3.04,.37,1.01,.98,1.94,1.18,3.01,.35,1.91-.72,3.76-1.42,5.57-2.24,5.84-.68,12.45,1.71,18.24,1.81,4.38,4.16,8.66,7.71,11.79s8.5,4.97,13.12,3.92c4.62-1.06,8.52-5.49,8.08-10.21-.16-1.75-.86-3.41-1.5-5.05-1.82-4.68-3.18-10-1.23-14.63,1.04-2.48,2.99-4.6,3.43-7.26,.58-3.42-1.56-6.8-4.29-8.94-2.73-2.14-6.04-3.39-9.08-5.08-3.03-1.69-5.96-4.07-6.97-7.39-.72-2.35-.41-4.95-1.26-7.26-1.15-3.12-4.35-5.19-7.65-5.64-2.65-.36-9.39,.17-10.67,3.24-1.47,3.52,4.98,3.96,5.88,6.81Z" style="fill: #0553dd;"/>
  <path d="M358.68,172.61c1.62-2.55,1.85-6.34-.48-8.26-.97-.8-2.27-1.18-3.14-2.09-1.38-1.43-1.33-3.66-1.63-5.63-.57-3.69-2.79-7.1-5.93-9.13s-7.15-2.66-10.76-1.7c-.86,.23-1.75,.58-2.26,1.31-.81,1.16-.32,2.83,.61,3.9,.93,1.07,2.22,1.76,3.28,2.7,2.82,2.5,3.81,6.4,5.18,9.91,1.69,4.31,4.19,8.29,7.3,11.72,4.27,4.7,5.16,1.45,7.82-2.73Z" style="fill: #0553dd;"/>
  <path d="M370.79,190.94c1.14,2.48,1.31,5.36,.73,8.03-.52,2.43-1.64,4.73-3.24,6.63-.72,.86-1.55,1.65-2.58,2.08-1.18,.49-2.5,.47-3.78,.36-4.37-.36-9.12-1.89-11.21-5.74-2.39-4.4-1.19-16.48,4.61-18.04,5.12-1.38,13.29,1.94,15.47,6.68Z" style="fill: #0553dd;"/>
  <path d="M395.74,97.73c-1.85-5.14-6.75-8.83-12.53-8.83-2.63,0-5.08,.77-7.14,2.09-2.61-7.01-9.36-12-17.28-12-7.3,0-13.6,4.24-16.59,10.39-1.12-.31-2.3-.49-3.52-.49-5.78,0-10.68,3.68-12.53,8.83h69.59Z" style="fill: #afc6f5;"/>
  <path d="M132.74,112.73c-1.85-5.14-6.75-8.83-12.53-8.83-2.63,0-5.08,.77-7.14,2.09-2.61-7.01-9.36-12-17.28-12-7.3,0-13.6,4.24-16.59,10.39-1.12-.31-2.3-.49-3.52-.49-5.78,0-10.68,3.68-12.53,8.83h69.59Z" style="fill: #afc6f5;"/>
  <g>
    <path d="M119.45,262.01c-.51,4.92,1.94,10.97-1.81,14.19-2.24,1.93-5.78,1.69-8.04,3.61-3.81,3.24-1.29,9.47,1.88,13.34,3.17,3.86,7.04,8.66,5.08,13.25-1,2.33-3.29,3.82-4.74,5.9-3.23,4.61-1.68,11.2,1.72,15.69,8.75,11.58,27.06,12.27,39.37,4.58,4.46-2.79,8.51-6.72,9.98-11.77,1.47-5.05-.36-11.28-5.07-13.62-1.9-.95-4.35-1.42-5.25-3.34-1.54-3.29,2.8-5.98,5.5-8.41,5.11-4.6,4.69-13.91-.81-18.03-2.33-1.75-5.49-2.82-6.59-5.52-.78-1.91-.25-4.07-.21-6.14,.26-15.63-29.34-19.83-31-3.71Z" style="fill: #5bb59b;"/>
    <rect x="134.18" y="271.77" width=".81" height="64.53" style="fill: #0553dd;"/>
    <polygon points="134.56 297.26 120.89 285.78 121.41 285.16 134.6 296.24 151 284.6 151.47 285.26 134.56 297.26" style="fill: #0553dd;"/>
    <polygon points="134.56 324.66 120.89 313.17 121.41 312.56 134.6 323.64 151 312 151.47 312.66 134.56 324.66" style="fill: #0553dd;"/>
  </g>
</svg>