<?xml version="1.0" encoding="UTF-8"?>
<svg id="_ÎÓÈ_1" data-name="—ÎÓÈ_1" xmlns="http://www.w3.org/2000/svg" viewBox="0 0 2490.47 2490.47">
  <g id="_7" data-name="7">
    <path d="M129.83,1824.14s-13.99,74.05,50.83,93.29c88.65,26.32,609.02,95.46,482.6,147.99-71.36,29.66,36.43,69.93,384.01,84.76,347.58,14.83,944.01-43.28,743.44-129.25-200.57-85.97,618.79-17.97,569.02-196.8H129.83Z" style="fill: #cfddf9;"/>
    <path d="M523.37,1820.05s-262.53-679.38-73.6-830.66c126.28-101.12,260.13,121.79,419.89,3.87,142.23-104.98-56.06-369.45,181.25-438.64,249.44-72.72,453.8,516.2,663.09,434.77,253.97-98.81,506.6,101.77,288.28,831.96l-1478.91-1.3Z" style="fill: #d4e8ff;"/>
    <path d="M317.96,1761.8c-4.41-13.5-8.77-27.5-12.96-41.59l10.33-3.07c4.17,14,8.5,27.9,12.87,41.32l-10.25,3.35Zm1848.38-17.44l-10.7-1.32c1.78-14.38,3.46-28.85,5.01-43.03l10.72,1.17c-1.56,14.23-3.25,28.75-5.03,43.18Zm-1873.24-66.04c-3.77-13.93-7.43-28.11-10.88-42.17l10.47-2.57c3.42,13.97,7.06,28.07,10.81,41.91l-10.4,2.82Zm1882.69-20.39l-10.73-1.01c1.36-14.43,2.63-28.95,3.75-43.15l10.74,.85c-1.13,14.25-2.4,28.83-3.77,43.31Zm-1903.41-64.19c-3.11-14.19-6.08-28.54-8.8-42.64l10.58-2.05c2.71,14.02,5.66,28.28,8.75,42.38l-10.53,2.31Zm1910.27-22.5l-10.76-.68c.91-14.42,1.71-28.97,2.38-43.24l10.77,.5c-.67,14.33-1.47,28.94-2.39,43.42Zm-1926.8-63c-2.4-14.36-4.62-28.85-6.6-43.05l10.68-1.49c1.97,14.11,4.17,28.49,6.55,42.76l-10.63,1.77Zm1930.84-23.88l-10.78-.31c.42-14.49,.71-29.05,.86-43.29l10.78,.11c-.15,14.3-.44,28.93-.87,43.49Zm-1942.84-62.4c-1.61-14.51-3.01-29.1-4.16-43.37l10.74-.87c1.14,14.16,2.53,28.65,4.13,43.05l-10.71,1.19Zm1932.97-24.5c-.13-14.5-.4-29.06-.82-43.28l10.78-.32c.42,14.29,.7,28.92,.82,43.5l-10.78,.09Zm-1939.96-62.35c-.71-14.59-1.19-29.24-1.41-43.55l10.78-.17c.22,14.18,.69,28.71,1.4,43.19l-10.77,.53Zm1937.41-24.16c-.74-14.48-1.65-29.01-2.7-43.18l10.75-.8c1.06,14.26,1.98,28.87,2.72,43.43l-10.76,.55Zm-1927.94-62.75l-10.78-.22c.3-14.63,.88-29.29,1.72-43.56l10.76,.63c-.83,14.13-1.41,28.65-1.7,43.15Zm1921.49-23.52c-1.44-14.48-3.07-28.93-4.85-42.97l10.69-1.35c1.79,14.13,3.43,28.69,4.88,43.26l-10.73,1.07Zm-1916.37-62.66l-10.73-1.08c1.46-14.58,3.25-29.15,5.31-43.3l10.67,1.55c-2.03,14-3.8,28.41-5.25,42.83Zm1905.49-23.13c-2.24-14.39-4.7-28.72-7.32-42.59l10.59-1.99c2.63,13.99,5.12,28.43,7.38,42.93l-10.65,1.66Zm-1274.84-1.52c-14.98-2.36-25.81-9.18-40.82-20.95l6.81-8.35c13.15,10.29,22.64,16.46,35.15,18.59l-1.15,10.72Zm37.4-25.65l-9.6-4.9c4.93-9.66,9.3-23.07,12.97-39.85l10.53,2.3c-3.92,17.93-8.47,31.82-13.9,42.45Zm-109.85-26.22c-8.59-9.56-17.76-20.57-28.05-33.65l8.47-6.67c10.15,12.89,19.17,23.72,27.6,33.11l-8.02,7.2Zm-545.74-8.84l-10.58-2.05c2.79-14.39,5.95-28.73,9.39-42.64l10.46,2.59c-3.4,13.73-6.52,27.9-9.27,42.1Zm1877.01-22.68c-3.19-14.24-6.64-28.35-10.23-41.95l10.42-2.76c3.63,13.73,7.11,27.98,10.33,42.35l-10.52,2.36Zm-1200.27-28.09l-10.69-1.38c1.66-12.87,3.14-26.96,4.54-43.07l10.74,.93c-1.41,16.27-2.91,30.5-4.58,43.52Zm-185.46-8.76c-8.76-11.83-17.85-24.34-25.68-35.14l8.73-6.33c7.82,10.77,16.89,23.26,25.62,35.05l-8.66,6.41Zm789.18-.89c-8.39,0-16.63-2.51-24.48-7.45l5.75-9.12c11.79,7.44,23.39,7.46,35.91,1.52l4.64,9.73c-7.41,3.53-14.75,5.32-21.82,5.32Zm-1259.72-23.22l-10.31-3.15c4.28-14.01,8.98-27.93,13.97-41.4l10.11,3.74c-4.91,13.27-9.54,27-13.77,40.81Zm1316.79-10.28l-7.92-7.31c8.17-8.85,16.93-19.77,26.78-33.38l8.73,6.32c-10.1,13.96-19.13,25.2-27.6,34.37Zm-112.2-7.41c-6.98-10.76-13.89-23.43-21.13-38.74l9.74-4.61c7.04,14.87,13.72,27.14,20.44,37.49l-9.05,5.86Zm629.53-4.77c-4.34-13.97-8.98-27.71-13.77-40.86l10.13-3.69c4.86,13.31,9.54,27.23,13.94,41.36l-10.29,3.2Zm-1414.81-23.71c-9.86-13.48-18.08-24.54-25.87-34.82l8.59-6.51c7.82,10.33,16.07,21.44,25.97,34.96l-8.7,6.37Zm244.51-8.01l-10.76-.7c.82-12.63,1.65-26.82,2.54-43.39l10.76,.58c-.89,16.61-1.73,30.84-2.55,43.51Zm-633.91-26.54l-9.86-4.35c5.92-13.4,12.22-26.56,18.92-39.43l9.56,4.98c-6.59,12.66-12.8,25.61-18.62,38.8Zm1339.16,0l-9.01-5.92c7.66-11.65,15.57-23.98,23.58-36.45l9.07,5.83c-8.03,12.5-15.95,24.85-23.64,36.54Zm-202.98-15.94c-4.88-12.25-9.93-25.61-15.42-40.85l10.14-3.66c5.46,15.13,10.46,28.38,15.3,40.51l-10.01,3.99Zm638.39-6.72c-5.8-13.5-11.93-26.61-18.22-38.97l9.61-4.89c6.4,12.57,12.63,25.9,18.52,39.61l-9.91,4.25Zm-1437.66-11.76c-9.78-12.14-18.89-22.95-27.83-33.03l8.06-7.15c9.06,10.22,18.27,21.15,28.16,33.43l-8.39,6.76Zm301.78-26.03l-10.77-.54c.73-14.4,1.45-28.81,2.22-43.47l10.76,.57c-.77,14.65-1.49,29.05-2.22,43.45Zm747.73-12.5l-8.99-5.94c9.01-13.63,17.06-25.42,24.63-36.04l8.78,6.25c-7.49,10.52-15.48,22.21-24.41,35.73Zm-1346.44-3.04l-9.09-5.8c8.47-13.27,17.2-25.25,25.96-35.61l8.23,6.96c-8.45,10-16.89,21.59-25.11,34.46Zm1066.37-21.93c-4.94-14.49-9.79-28.98-13.89-41.25l10.23-3.41c4.09,12.25,8.93,26.72,13.86,41.18l-10.2,3.48Zm-826.92-.75c-11.02-10.73-21.85-20.2-32.2-28.16l6.57-8.54c10.68,8.22,21.83,17.97,33.14,28.98l-7.52,7.72Zm1455.98-.46c-7.72-12.6-15.82-24.52-24.07-35.43l8.6-6.5c8.46,11.19,16.76,23.4,24.66,36.3l-9.19,5.63Zm-1640.09-40.64l-6.54-8.57c12.87-9.82,26.27-16.9,39.82-21.05l3.15,10.31c-12.32,3.77-24.58,10.27-36.44,19.31Zm1341.51-3.3l-8.37-6.79c10.11-12.47,19.69-23.21,29.28-32.81l7.63,7.62c-9.33,9.34-18.66,19.8-28.54,31.98Zm-793.52-4.24l-10.76-.64c.93-15.67,1.86-29.9,2.83-43.5l10.75,.77c-.97,13.56-1.89,27.75-2.82,43.37Zm-431.72-2.26c-13.45-6.69-26.68-10.97-39.32-12.7l1.46-10.68c13.81,1.89,28.16,6.51,42.66,13.73l-4.8,9.65Zm1472.01-17.42c-10.38-10.63-21.12-20.02-31.94-27.89l6.35-8.71c11.3,8.23,22.5,18.01,33.3,29.08l-7.71,7.53Zm-604.89-13.43c-5.36-16.04-9.78-29.11-13.91-41.15l10.2-3.49c4.14,12.07,8.56,25.17,13.93,41.23l-10.22,3.42Zm418.91-22.15l-6.18-8.83c13.26-9.27,26.65-16.14,39.8-20.41l3.33,10.25c-12.13,3.94-24.57,10.33-36.95,18.99Zm117.62-13.21c-13.35-5.63-26.86-9.12-40.17-10.36l1-10.73c14.4,1.35,28.99,5.1,43.35,11.16l-4.19,9.93Zm-965.65-18.18l-10.74-.95c1.34-15.12,2.8-29.73,4.34-43.41l10.71,1.21c-1.53,13.6-2.98,28.12-4.32,43.16Zm400.88-28.61c-5.21-14.54-10.12-27.83-15.01-40.63l10.07-3.85c4.92,12.87,9.85,26.23,15.08,40.84l-10.15,3.64Zm-391.07-57.53l-10.67-1.54c2.18-15.09,4.58-29.61,7.12-43.14l10.59,1.99c-2.52,13.38-4.89,27.74-7.05,42.69Zm360.05-23.34c-5.79-13.93-11.63-27.26-17.35-39.62l9.78-4.53c5.78,12.49,11.68,25.95,17.53,40.01l-9.95,4.14Zm-343.85-61.52l-10.46-2.61c3.76-15.05,7.9-29.23,12.32-42.14l10.2,3.49c-4.32,12.62-8.37,26.51-12.06,41.27Zm307.35-16.78c-7.09-13.35-14.33-25.89-21.53-37.26l9.11-5.76c7.34,11.6,14.72,24.37,21.94,37.96l-9.52,5.06Zm-279.11-63.98l-9.67-4.77c7.08-14.34,14.93-27.02,23.33-37.69l8.47,6.67c-7.94,10.08-15.38,22.12-22.13,35.79Zm232.87-8.24c-9.42-11.81-19.14-22.27-28.89-31.09l7.23-7.99c10.18,9.21,20.31,20.1,30.09,32.36l-8.43,6.72Zm-180.67-55.49l-5.81-9.08c12.77-8.17,26.84-13.49,41.82-15.79l1.64,10.65c-13.48,2.08-26.15,6.86-37.65,14.22Zm117.77,0c-12.56-6.77-25.64-11.4-38.88-13.75l1.89-10.61c14.37,2.56,28.54,7.57,42.1,14.88l-5.12,9.49Z" style="fill: #dce6ff;"/>
    <path d="M2241.15,1518.37c-89.45-13.26-81.35,186-208.86,186-116.58,0-178.96-445.19-306.89-354.64-514.3,364.01-114.14-255.42-459.96-267.53-156.37-5.47-260.57,161.26-298.99,456.47-55.7,266.88-184.87-203.56-317.8-159.82-84.48,27.8-74.81,325.51-191.39,325.51-127.51,0-119.11-167.56-208.56-154.3-96.31,14.28-118.88,274.06-118.88,274.06H2359.73s-22.27-291.49-118.57-305.77Z" style="fill: #eef7ff;"/>
    <path d="M2155.44,1727.51c-82.29-5.66-68.86,45.49-186.17,45.49-107.25,0-104.3-114.63-176.07-139-132.17-44.87-241.13,182.21-292.37,68.24-97.32-302.39-381.16-454.04-512.11,0-51.24,113.96-171.07-89.39-292.37-68.24-74.67,13.01-68.82,139-176.07,139-117.3,0-103.87-51.15-186.17-45.49-88.6,6.1-115.07,96.63-115.07,96.63H2270.5s-26.46-90.53-115.07-96.63Z" style="fill: #dce6ff;"/>
  </g>
  <g id="_6" data-name="6">
    <path d="M664.14,1074.66c-6.11-8.33,66.32-75.72,79.93-80.12-12.58-3.74-27.03-9.4-42.55-17.88-2.6,10.77-92.65,70.72-98.73,62.11-4.65-9.28,79.73-63.72,93.43-65.09-12-6.96-24.56-15.63-37.34-26.43-.2,9.57-105.76,54.92-109.21,44.89-3.58-9.91,95.34-50.88,106.25-47.44-8.87-7.71-17.82-16.43-26.75-26.34-6.7,9.78-106.95,43.65-110.85,33.89-2.03-10.14,92.67-40.63,106.64-38.68-7.38-8.47-15.01-18.31-22.08-28.16-8.64,8.58-111.92,26.7-114.39,16.51-.39-10.25,95.9-25.79,110.24-22.19-7.54-10.24-14.8-19.8-21.79-28.73-9.65,8.45-111.12,26.24-113.75,16.13-.34-10.12,93.65-25.41,108.9-22.3-8.47-10.67-16.5-20.37-24.1-29.21-9.1,8.53-111.57,26.5-114.12,16.34-.34-10.13,93.76-25.43,108.96-22.3-8.56-9.77-16.51-18.38-23.85-25.98-6.14,8.88-113.64,27.7-115.62,17.34-.44-10.31,97.17-26.01,110.95-22.11-10.1-10.21-18.92-18.38-26.44-24.87-6.82,8.21-116.15,15.17-116.92,4.64,.76-10.04,94.98-14.95,110.14-10.35-23.75-20.82-33.88-15.02-67.71-33.61-68.88-34.55-61.41-49.4,7.33-14.53,35.4,17.84,40.51,24.76,61.3,40.27-10.82-13.68-45.3-95.35-36.89-99.92,9.42-4.87,53.84,101.65,47.08,108.37,7.19,6.2,15.54,13.91,25.02,23.43-8.26-14.15-27.63-104.57-18.24-107.75,10.2-2.86,33.31,109.58,25.6,115.27,7.09,7.38,14.75,15.71,22.94,25.09-5.04-16.13-5.86-106.83,3.83-107.98,10.51,.53,10.53,107.19,3.25,116.19,7.2,8.45,14.8,17.68,22.77,27.75-3.68-15.06,7.97-109.64,18.08-109.59,10.43,1.62-4.22,109.76-12.87,116.23,6.99,8.97,14.27,18.57,21.82,28.84-.62-16.37,24.97-105.25,34.74-103.63,9.7,3.89-19.75,102.39-29.29,111.09,7.03,9.77,14.36,18.96,21.58,27.16-3.89-11.65,24.55-112.27,34.81-110.11,10.31,2.42-22.18,111.79-31.68,113.63,8.48,9.38,16.98,17.66,25.4,24.99-3.23-12.66,24.63-111.14,34.87-109.18,10.04,3.26-21.12,107.53-30.67,112.77,12.63,10.57,25.02,19.01,36.82,25.74-4.72-11.48,15.49-113.7,25.88-112.41,10.26,2.46-12.41,108.81-21.51,114.85,15.08,8.17,29.07,13.58,41.22,17.15-4.38-13.65,7.54-111.69,17.83-111.57,10.08,2.49-3.39,102.12-11.27,113.37,36.41,9.33,61.94,4.68,62.25,4.62l1.24,6.44c-1.14,.22-27.69,5.13-66.2-4.99-.86,11.15-78.76,85.72-86.29,78.34Z" style="fill: #9358e0;"/>
    <path d="M711.81,865.39c2.2-10.09,100.66-.38,112.96,6.9-5.52-11.91-10.85-26.48-14.76-43.73-9.8,5.17-114.33-22.66-111.9-32.92,3.88-9.63,100.53,17.61,110.63,26.97-2.72-13.6-4.54-28.76-4.9-45.48-7.31,6.19-111.16-42.95-105.93-52.17,5.06-9.24,101.24,37.81,105.88,48.26-.09-11.75,.52-24.23,2.05-37.49-11.76,1.45-103.5-51.3-98.77-60.68,6.26-8.24,91.79,42.59,99.57,54.35,1.46-11.14,3.79-23.37,6.51-35.19-12.16-.8-94.08-66.23-88.08-74.84,7.43-7.07,82.8,54.83,89.59,67.96,2.69-12.43,5.05-24.2,7.12-35.35-12.72-1.64-93.21-65.94-87.37-74.61,7.36-6.96,81.02,53.4,88.79,66.88,2.39-13.41,4.35-25.85,5.95-37.4-12.41-1.18-93.7-66.11-87.78-74.74,7.37-6.96,81.11,53.47,88.83,66.93,1.66-12.88,2.86-24.54,3.69-35.07-10.72,1.27-95.97-66.86-89.51-75.21,7.44-7.15,83.8,55.63,90,68.55,.97-14.33,1.26-26.35,1.15-36.28-10.67,.32-88.23-77.04-80.85-84.58,8.03-6.08,74.06,61.31,80.64,75.73-.11-31.58-11.16-35.34-19.61-73.01-19.68-74.5-3.6-78.73,15.75-4.12,10.05,38.34,8.25,46.76,10.37,72.61,3.1-17.17,41.51-97.06,50.5-93.78,9.88,3.84-40.58,107.64-50.09,107.01,.11,9.49-.15,20.85-1.01,34.26,5.14-15.56,60.11-89.91,68.71-84.98,8.89,5.76-60.11,97.49-69.48,95.47-.84,10.2-2.02,21.45-3.62,33.8,8.76-14.45,76.21-75.09,83.49-68.59,6.56,8.24-73.39,78.84-84.96,79.33-1.57,10.99-3.46,22.79-5.73,35.44,8.85-12.73,87.48-66.58,94.13-58.97,5.69,8.89-85.08,69.47-95.66,67.27-2.09,11.18-4.48,22.98-7.18,35.45,11.86-11.29,95.43-50.94,100.68-42.53,3.51,9.85-89.83,52.95-102.67,51.55-2.67,11.74-4.71,23.32-6.08,34.15,6.16-10.63,100.41-55.89,105.58-46.77,5.01,9.33-98.49,57.35-106.15,51.44-1.42,12.56-2,24.42-1.93,35.58,7.36-10.8,99.62-55.08,104.93-46.11,4.2,9.68-94.59,55.32-104.84,51.63,.44,16.46,2.31,31.34,5.07,44.64,5.48-11.13,95.49-63.64,101.4-54.99,4.95,9.32-89.79,62.7-100.33,59.88,3.85,16.71,9.06,30.78,14.42,42.25,7.34-12.32,88.72-68.26,95.44-60.46,4.81,9.21-78.81,65.04-92.45,66.58,17.1,33.47,37.48,49.54,37.73,49.73l-4.01,5.2c-.92-.71-22.17-17.37-40.07-52.93-8.93,6.73-116.38-2.32-115.83-12.85Z" style="fill: #8a9edd;"/>
    <path d="M1431.84,951.83c69.42-41.25,128.12-87.83,176.24-132.68-9.48,2.13-46.38-7.5-44.5-15.48,2.22-8.92,47.18,1.88,50.7,9.66,3.24-3.07,6.44-6.13,9.59-9.18-9.18,1.68-46.73-14.15-43.63-22.18,3.57-8.47,46.31,9.11,48.6,17.33,3.94-3.88,7.81-7.73,11.59-11.56-9.45,1.18-45.79-14.34-42.71-22.18,3.61-8.31,44.78,8.54,48.17,16.61,3.75-3.85,7.44-7.68,11.03-11.47-8.51,2.01-46.42-21.23-41.84-29.04,4.85-7.89,45.06,16.85,45.34,25.3,3.45-3.68,6.83-7.33,10.12-10.93-9.12,.71-44.7-21.39-40.3-28.97,4.88-7.6,42.61,15.46,44.82,23.97,3.92-4.35,7.72-8.64,11.4-12.86-9.22,.48-44.33-21.41-39.95-28.93,4.85-7.52,41.94,15.07,44.61,23.57,2.81-3.27,5.53-6.48,8.2-9.65-8.97-.25-41.25-28.62-35.56-35.45,6-6.53,38.26,21.38,39.9,30.26,3.77-4.54,7.29-8.85,10.83-13.27-9.13-.9-40.38-28.54-34.79-35.26,5.86-6.4,37.09,20.38,39.51,29.34,2.67-3.38,5.28-6.73,7.82-10.02-8.6-.74-35.63-37.18-28.38-42.72,7.16-5.03,32.2,28.3,32.39,37.48,3.1-4.08,6.1-8.08,9-12.01-8.63-1.06-35.35-37.12-28.14-42.65,7.07-4.98,31.75,27.7,32.29,36.99,3.08-4.24,6.03-8.37,8.86-12.38-8.69-3.99-31.57-35.91-24.89-40.99,6-4.75,28.07,22.78,30.83,32.47,2.73-3.96,5.32-7.79,7.78-11.49-8.17-3.9-27.09-41.93-19.3-46.09,6.8-3.65,23.95,27.58,24.91,37.57,2.2-3.39,4.28-6.63,6.24-9.73-8.24-2.3-26.24-44.71-17.82-48.36,7.43-3.16,22.86,30.94,22.56,40.76,2.92-4.74,5.49-9.03,7.72-12.82-8.05-3.6-25.12-44.11-16.91-47.79,6.87-3.22,21.77,28.38,22.27,38.48,1.94-3.45,3.36-6.06,4.27-7.77-2.19-8.87,13.95-47.6,22.15-44.46,3.78,1.55,2.36,13.78-3.19,27.32-6.19,16.11-11.93,17.09-17.65,28.62,8.23-5.94,41.63-14.28,43.4-7.03,2.62,8.88-42.52,22.21-49.07,16.84-2.07,3.52-4.44,7.45-7.08,11.74,8.86-4.49,45.28-6.03,45.72,1.84,.52,9.1-44.62,12.38-50.85,6.38-2.3,3.65-4.78,7.5-7.43,11.55,9.26-3.65,45.47-2,45.21,5.84-.33,8.99-44.24,8.46-50.63,2.36-2.48,3.7-5.09,7.54-7.82,11.49,9.42-2.98,45.96,1.9,45.04,9.81-1.15,8.88-44.39,4.45-50.43-2.09-2.57,3.65-5.25,7.4-8.03,11.22,9.39-2.28,46.71,7.39,44.84,15.44-2.29,8.67-44.75-1.37-49.81-8.66-2.56,3.47-5.2,7-7.93,10.6,9.12-1.77,46.89,14.11,43.79,22.18-3.6,8.29-44.61-8.47-48.11-16.52-2.86,3.72-5.81,7.5-8.84,11.33,8.88-2.17,47.57,13.96,44.43,22.15-3.58,8.42-45.79-8.91-48.46-17.09-3.32,4.16-6.63,8.2-10.15,12.46,9.18-1.68,46.73,14.15,43.63,22.18-3.6,8.32-44.93-8.59-48.22-16.68-2.5,2.98-5.06,6.01-7.69,9.08,9.43,.1,43.38,21.47,39.07,28.82-4.79,7.38-40.81-14.4-44.21-22.86-3.2,3.67-6.46,7.39-9.84,11.16,9.25-.39,44.19,21.42,39.83,28.92-4.86,7.52-41.99-15.09-44.62-23.59-3.45,3.81-7,7.67-10.63,11.56,8.89-1.23,45.43,21.33,40.96,29.02-4.88,7.73-43.73-16.1-45.09-24.6-3.36,3.56-6.81,7.17-10.32,10.79,9.14,.27,42.15,26.07,36.96,33.14-5.63,6.94-39.99-19.42-41.79-28.16-3.79,3.87-7.69,7.76-11.65,11.68,8.62-1.23,44.02,26.09,38.61,33.37-5.68,7.25-42.45-21.22-42.3-29.73-4.18,4.1-8.46,8.22-12.82,12.35,8.79,.3,39.64,31.89,33.32,38.33-6.59,6.18-37.62-25.48-37.63-34.25-48.93,45.91-108.92,93.77-180.09,136.07l-3.42-5.75Z" style="fill: #eb5648;"/>
    <path d="M1367.57,1127.22c83.8-31.88,156.9-71.62,218.08-111.49-10.78,.52-49.3-17.06-45.72-25.42,4.13-9.34,51.24,11.05,53.61,20.23,4.13-2.74,8.22-5.48,12.24-8.22-10.36,.08-48.41-24.39-43.49-32.59,5.52-8.59,48.91,18.8,49.85,28.23,5.05-3.49,10.01-6.96,14.88-10.43-10.56-.51-47.34-24.42-42.48-32.41,5.53-8.4,47.35,17.89,49.52,27.36,4.84-3.5,9.61-6.98,14.25-10.45-9.7,.58-46.72-32.08-40.22-39.74,6.81-7.71,46.07,27.03,44.76,36.33,4.47-3.37,8.87-6.71,13.15-10.03-10.11-.96-44.81-31.93-38.55-39.38,6.79-7.38,43.66,25.04,44.45,34.77,5.11-4.01,10.09-7.97,14.92-11.89-10.17-1.24-44.4-31.88-38.18-39.27,6.74-7.29,43,24.48,44.29,34.29,3.7-3.04,7.29-6.03,10.81-8.99-9.76-1.99-39.66-39.17-32.13-45.56,7.81-6,37.77,30.69,37.87,40.71,4.98-4.25,9.67-8.28,14.37-12.45-9.81-2.73-38.72-38.92-31.32-45.21,7.63-5.88,36.68,29.37,37.61,39.62,3.57-3.19,7.05-6.35,10.46-9.47-9.26-2.46-31.87-47.47-22.88-52.14,8.78-4.13,29.82,37.08,28.27,47.17,4.17-3.87,8.21-7.67,12.13-11.41-9.23-2.81-31.58-47.34-22.64-52.02,8.68-4.1,29.44,36.35,28.25,46.62,4.18-4.05,8.19-8,12.05-11.85-40.02-46.86-15.3-78.53,8.12-8.19,3.74-3.81,7.31-7.51,10.7-11.07-8.19-5.82-21.63-51.03-12.31-54.09,8.14-2.7,20.93,34.72,20.08,45.84,3.06-3.28,5.95-6.43,8.67-9.44-8.57-4.09-20.17-53.9-10.26-56.29,8.73-2.04,19.1,38.2,16.9,48.89,4.1-4.62,7.73-8.83,10.89-12.54-8.12-5.47-19.06-53.05-9.37-55.5,8.12-2.21,18.4,35.2,17.02,46.34,2.79-3.41,4.83-5.99,6.15-7.68-.7-10.12,24.34-49.4,32.71-44.4,3.84,2.42-.05,15.52-8.7,29.27-9.84,16.44-16.31,16.41-24.77,27.94,10.14-4.92,48.26-7.68,48.81,.6,1.17,10.21-50.75,16.18-56.89,9.06-2.94,3.45-6.27,7.3-9.98,11.49,10.55-3.23,50.68,2.05,49.66,10.74-1.17,10.06-51.17,5.02-56.84-2.73-3.22,3.56-6.65,7.29-10.32,11.21,10.83-2.23,50.11,6.49,48.33,15.01-2.07,9.77-50.02,.8-55.84-7.09-3.42,3.58-7,7.27-10.75,11.08,10.88-1.46,49.92,10.85,47.4,19.32-2.95,9.49-49.4-3.61-54.76-11.91-3.51,3.5-7.16,7.09-10.93,10.74,10.71-.7,49.68,16.99,46.11,25.45-4.16,9.05-48.69-10.04-52.83-18.98-3.46,3.31-7.04,6.67-10.7,10.08,10.31-.2,48.61,24.38,43.67,32.61-5.52,8.38-47.19-17.79-49.47-27.26-3.85,3.53-7.78,7.1-11.83,10.72,10.13-.69,49.37,24.34,44.38,32.71-5.52,8.53-48.4-18.5-49.75-27.95-4.42,3.92-8.82,7.71-13.47,11.7,10.36-.08,48.42,24.39,43.49,32.59-5.53,8.42-47.5-17.97-49.56-27.44-3.3,2.79-6.68,5.61-10.15,8.46,10.29,1.91,43.35,31.76,37.23,38.98-6.65,7.16-41.89-23.54-44-33.44-4.2,3.41-8.48,6.85-12.89,10.33,10.19,1.34,44.25,31.86,38.04,39.23-6.75,7.3-43.04-24.52-44.31-34.32-4.5,3.51-9.12,7.05-13.84,10.62,9.96,.35,45.62,32,39.26,39.55-6.82,7.52-44.76-25.95-44.63-35.51-4.36,3.26-8.82,6.54-13.35,9.83,9.95,2.04,41.13,36.56,34.1,43.3-7.48,6.52-40.04-28.87-40.34-38.78-4.89,3.5-9.89,7.02-14.97,10.55,9.67,.3,43.17,36.94,35.86,43.87-7.6,6.85-42.39-31.31-40.6-40.59-5.35,3.68-10.83,7.37-16.38,11.06,9.55,2,37.27,42.45,29.13,48.28-8.39,5.5-36.29-35.04-34.62-44.64-62.27,40.88-137.03,81.78-222.94,114.46l-2.64-6.94Z" style="fill: #fcb4b4;"/>
  </g>
  <g id="_5" data-name="5">
    <path d="M1588.88,1932.55l-773.66,19.22c-51.22,0-84.86-34.68-86.42-54.71l-90.07-1113.25c-1.75-22.38,27.14-60.72,86.43-60.72l773.66,19.22c20.1,0,36.81,15.46,38.38,35.49l90.07,1113.25c1.75,22.38-15.93,41.5-38.38,41.5Z" style="fill: #7689d6;"/>
    <path d="M1636.93,1951.76H815.22c-20.1,0-36.81-15.46-38.38-35.49l-90.07-1151.68c-1.75-22.38,15.93-41.5,38.38-41.5h821.71c20.1,0,36.81,15.46,38.38,35.49l90.07,1151.68c1.75,22.38-15.94,41.5-38.38,41.5Z" style="fill: #8a9edd;"/>
    <path d="M1587.41,1904.73H861.72c-19.97,0-36.61-15.29-38.3-35.19l-19.99-235.66-69.58-820.05c-1.9-22.43,15.79-41.68,38.3-41.68h725.69c19.97,0,36.61,15.29,38.3,35.18l12.35,145.61,77.22,910.1c1.9,22.43-15.79,41.69-38.3,41.69Z" style="fill: #fff;"/>
    <path d="M1128.1,1904.73h-266.38c-19.97,0-36.61-15.29-38.3-35.19l-19.99-235.66c15.6-43.68,43.42-107.76,79.65-134.57,57.46-42.52,17.94,93.82,.17,168.89-17.78,75.06,9.29,88.7,50.14,48.94,40.85-39.75,76.08-116.27,112.85-106.35s-116.43,170.77-84.26,206c32.17,35.24,226.73-137.87,310.98-114.89,72.04,19.65-57.42,151.73-144.86,202.83Z" style="fill: #eb5648;"/>
    <path d="M1548.49,952.94c-156.88,27.04-184.38,131.67-228.04,114.04-51.06-20.62-87.06,27.17-101.79,139.88-14.61,111.79,49.5,226.19-6.46,232.33-49.02,5.38-35.08-97.06-31.16-155.05,8.7-128.48-136.33-233.29-64.84-378.6,30.53-62.05,86.92-104.79,141.51-133.38h240.13c19.97,0,36.61,15.29,38.3,35.18l12.35,145.61Z" style="fill: #ce4abf;"/>
    <path d="M903.77,1111.73s54.43-32.61,91.91-9.23c64.63,40.31,37.61,118.81,59.23,181.63,31.66,91.97-81.7,95.31-87.83,40.14-6.58-59.26,20.43-142.59,9.19-181.46-11.23-38.87-72.51-31.07-72.51-31.07Z" style="fill: #3a72aa;"/>
    <circle cx="1133.01" cy="782.23" r="31.18" transform="translate(179.4 1775.31) rotate(-80.78)" style="fill: #eb5648;"/>
  </g>
  <g id="_4" data-name="4">
    <path d="M1686.18,1771.9v216.05c0,31.4-28.47,56.85-63.59,56.85h-104.54c-35.12,0-63.59-25.45-63.59-56.85v-216.05c0-16.14,7.52-30.7,19.59-41.05,18.72-16.03,30.68-37.34,33.79-60.35l4.17-30.91h116.6l4.17,30.91c3.1,23.01,15.07,44.31,33.78,60.35,12.08,10.35,19.6,24.91,19.6,41.05Z" style="fill: #5770b5;"/>
    <path d="M1665.83,1771.9v216.05c0,31.4-28.47,56.85-63.59,56.85h-84.18c-35.12,0-63.59-25.45-63.59-56.85v-216.05c0-16.14,7.52-30.7,19.59-41.05,18.72-16.03,30.68-37.34,33.79-60.35l4.17-30.91h96.25l4.17,30.91c3.1,23.01,15.07,44.31,33.78,60.35,12.08,10.35,19.6,24.91,19.6,41.05Z" style="fill: #8a9edd;"/>
    <rect x="1454.47" y="1822.23" width="231.71" height="115.39" style="fill: #5770b5;"/>
    <rect x="1494.55" y="1611.66" width="151.55" height="45.84" rx="13.34" ry="13.34" style="fill: #1d3f70;"/>
  </g>
  <g id="_3" data-name="3">
    <path d="M1423.85,1822.77v175.78c0,25.55-23.17,46.25-51.74,46.25h-85.05c-28.57,0-51.74-20.71-51.74-46.25v-175.78c0-13.13,6.13-24.98,15.95-33.39,15.23-13.05,24.96-30.38,27.49-49.1l3.39-25.16h94.88l3.39,25.16c2.53,18.72,12.26,36.04,27.49,49.1,9.83,8.42,15.95,20.26,15.95,33.39Z" style="fill: #f49f9f;"/>
    <path d="M1404.86,1822.77v175.78c0,25.55-23.17,46.25-51.74,46.25h-66.06c-28.57,0-51.74-20.71-51.74-46.25v-175.78c0-13.13,6.13-24.98,15.95-33.39,15.23-13.05,24.96-30.38,27.49-49.1l3.39-25.16h75.88l3.39,25.16c2.53,18.72,12.26,36.04,27.49,49.1,9.83,8.42,15.95,20.26,15.95,33.39Z" style="fill: #fcb4b4;"/>
    <rect x="1267.94" y="1692.39" width="123.3" height="37.3" rx="10.86" ry="10.86" style="fill: #1d3f70;"/>
    <ellipse cx="1329.59" cy="1894.74" rx="61.65" ry="55.12" style="fill: #ffd2d2;"/>
  </g>
  <g id="_2" data-name="2">
    <path d="M1672.78,1375.1s-8.79-3.73-10.84-18.8l9.66-17.5,10.89,6.18,5.09,22.05-14.79,8.07Z" style="fill: #f99370;"/>
    <path d="M2043.98,2031.7l67.8-34.72c-.68-4.19-12.42-18.87-14.86-25.24-2.17-3.62-21.62-54.88-23.8-60.11l-38.92,19.94,31.94,46.87c3.79,5.56,3.09,13.01-1.64,17.79-10.06,11.17-25.52,16.16-28.49,30.1-.38,4.31,4.13,7.35,7.98,5.38Z" style="fill: #f99370;"/>
    <path d="M2110.49,1989.4c.9,2.43,1.4,4.98,1.28,7.57l-68.35,35.01c-3.32,1.7-7.41-.34-7.91-4.04-1.16-8.66,2.4-23.91,33.06-41.7,0,0,12.35-2.3,28.34-14.52,0,0,9.95,7.8,13.57,17.67Z" style="fill: #eb5648;"/>
    <path d="M2035.49,2027.82l75-38.41c.9,2.43,1.4,4.98,1.28,7.57l-68.35,35.01c-3.37,1.73-7.51-.41-7.93-4.17Z" style="fill: #ce3932;"/>
    <path d="M1817.45,2038.5l76.16-1.01c1.25-4.06-2.75-22.43-2.11-29.21-.33-4.21,4.99-58.78,5.37-64.43l-43.73,.58,7.81,56.18c.93,6.66-3.01,13.03-9.37,15.21-13.98,5.54-30.04,3.15-38.89,14.32-2.25,3.69,.44,8.42,4.76,8.37Z" style="fill: #f99370;"/>
    <path d="M1895.83,2030.13c-.28,2.58-.95,5.08-2.21,7.36l-76.79,1.02c-3.73,.05-6.49-3.59-5.3-7.13,2.81-8.27,12.77-20.36,48.14-22.68,0,0,12.09,3.43,31.84-.42,0,0,5.45,11.41,4.32,21.86Z" style="fill: #eb5648;"/>
    <path d="M1811.57,2031.26l84.25-1.12c-.28,2.58-.95,5.08-2.21,7.36l-76.79,1.02c-3.79,.06-6.55-3.7-5.25-7.26Z" style="fill: #ce3932;"/>
    <path d="M1804.36,1967.73c1.06,9.56,1.81,14.77,1.81,14.77,33.68,16.63,83.8,12.92,116.84,4.5-.45-2.84-.89-5.67-1.32-8.48-.36-2.4-.71-4.79-1.05-7.16h0c-26.12-181.73-5.81-308.93-5.81-308.93,13.34,87.5,26.86,147.95,92.2,300.67,2.21,5.17,4.49,10.44,6.85,15.82,38.78-6.67,84.48-29.34,113.28-51.76-3.04-5.03-5.96-10.06-8.76-15.09-83.71-150.01-65.04-297.65-108.16-376.71,0,0-172.34,11.85-174.38,17.85-59.91,175.68-37.63,359.05-31.5,414.52Z" style="fill: #9358e0;"/>
    <path d="M1871.54,1241.97s26.61-35.1,67.34-2.34c19.29,15.51,35.9,50.43,48.1,63.2,41.3,43.23,13.72,88.62-12.66,97.94-25.89,9.15-92.53,43.22-130.52,3.76-25.04-26-4.15-58.72,4.63-80.65,8.79-21.93,23.11-81.92,23.11-81.92Z" style="fill: #1d3f70;"/>
    <path d="M1885.53,1245.48s-19.69-11.49-35.28,7.05c-15.59,18.54,.26,62.18,.26,62.18l35.02-69.24Z" style="fill: #1d3f70;"/>
    <path d="M1876.07,1357.2l1.07,10.4c-5.81,6.45,2.14,15.92,7.51,15.6,8.18-.47,22.22-13.53,24.66-17.58,0,0-1.73-9.88-1.97-14.49l-31.28,6.07Z" style="fill: #f99370;"/>
    <path d="M1848.02,1382.47c-27.89,21.74-51.37,46.34-87.38,53.57-27.05,6.91-40.87-24.36-52.55-44.48-4.71-8.76-9.34-17.89-14.38-27.04-6.76-12.44-26.18-3.6-21.27,9.64,7.09,19.54,12.47,39.22,22,58.54,26.81,57.85,80.7,53.14,130.55,28.5,19.24-9.33,34.91-22.6,52.4-33.62,31.98-19.38,1.4-66.53-29.36-45.12Z" style="fill: #f99370;"/>
    <path d="M1673.79,1390.55c.58,6.84,2.33,16.87,6.76,30.9,10.04,31.81,37.96,64.48,78.74,69.84,10.02,1.32,20.93,.84,31.54-.8h0c23.28-3.59,45.09-12.8,52.82-21.11,1.11-1.19,2.16-3.11,3.13-5.61,8.98-22.82,12.67-93.6,12.67-93.6-1.71,2.07-14.26,5.27-45.45,33.33-26.28,23.65-60.99,29.31-80.45,5.67-9.94-12.08-20.88-26.67-29.35-35.18h0c-3.67-3.69-6.88-6.26-9.33-6.96,0,0-7.95,10.77-20.65,11.32,0,0-1.16,3.52-.42,12.2Z" style="fill: #eb5648;"/>
    <path d="M1907.7,1318.37c-.03,.55-.08,1.12-.17,1.67-.77-.42-1.16,19.64,.03,34.07-13.05,7.3-28.41,5.86-31.22,5.52-1.83-18.26-1.55-35.06,.26-45.74,4.02-18.16,32.36-14.04,31.09,4.48Z" style="fill: #e57d61;"/>
    <path d="M1926.81,1300.65c-.55,14.35-3.38,30.8-13.36,41.47h-.02c-4.04,4.28-9.23,7.32-14.89,9.17-31.4,13.37-75.11-20.62-52.64-51.25,8.28-9.76,8.4-25.27,14.79-34.75,8.91-17.01,32.74-19.08,47.12-7.85,12.99,10.16,18.9,25.62,19,43.2Z" style="fill: #f99370;"/>
    <path d="M1790.84,1490.49c23.28-3.59,45.09-12.8,52.82-21.11,1.11-1.19,2.16-3.11,3.13-5.61l-22.96-30.11s-5.56,12.72-8.45,26.95c-2.9,14.22-10.67,23.5-24.54,29.88Z" style="fill: #ce3932;"/>
    <path d="M1872.01,1298.51c-1.59-2.29,2.05-4.73,3.57-2.39,1.59,2.29-2.05,4.73-3.57,2.39Z" style="fill: #c16256;"/>
    <path d="M1853.72,1297.68c-1.59-2.29,2.05-4.73,3.57-2.39,1.59,2.29-2.05,4.73-3.57,2.39Z" style="fill: #c16256;"/>
    <path d="M1861.51,1315.47c1.31-.15,4.26,0,3.97-1.78-.19-.41-.67-.59-1.08-.4-2.6,1.2-6.59,.31-7.27-.85-.24-.41,.29-.91,.78-1.25,4.24-2.82,8.55-16.25,4.78-12.79-.02,.09-1.96,8.8-5.72,11.46-4.15,3.68,.87,5.53,4.54,5.61Z" style="fill: #c16256;"/>
    <path d="M1837.23,1546.34c75.84,25.73,171.83-20.85,171.83-20.85,0,0-13.59-20.01-20.63-40.88-1.67-4.95-2.97-9.96-3.64-14.76-3.46-24.97,4.79-78.56-57.3-105.86,0,0-7.81,1.7-18.16,1.63,0,0-14.22,24.04-32.36,15.45-7.02-3.33,.18-13.48,.18-13.48-9.55,4.71-17.69,2.56-17.69,2.56-24.13,28.79-36.76,56.28-37.56,76.63-1.26,31.84,19.28,54.36,15.33,99.55Z" style="fill: #eb5648;"/>
    <path d="M1926.81,1300.65c-.55,14.35-3.38,30.8-13.36,41.47h-.02c5.23-8.4,6.99-25.98,6.99-25.98l-3.84-7.26c-50.82-9.82-51.41-49.59-51.41-49.59,28.48-26.17,64.14,8.34,61.64,41.37Z" style="fill: #e57d61;"/>
    <path d="M1869.94,1255.16s.78,39.19,46.48,49.75l14.65-10.58c11.66-31.92-21.46-72.64-61.12-39.17Z" style="fill: #1d3f70;"/>
    <path d="M1936.62,1306.67c-1.24,16.31-21.81,14.52-20.2-1.76,1.24-16.31,21.81-14.51,20.2,1.76Z" style="fill: #f99370;"/>
    <path d="M1931.85,1310.61c2.89-3.88,.73-10.71-1.15-11.7-3.5-2.14-9.02-.08-8.4,1.48,1.21,1.48,4.03-2.32,7.45-.16,3.48,1.97,.04,9.28,2.1,10.38Z" style="fill: #c16256;"/>
    <path d="M1924.18,1310.39c1.64-.29,1.51-6.36,7.77-7.77,.44-.08,.73-.51,.65-.95-4.86-2.8-11.39,9.42-8.42,8.72Z" style="fill: #c16256;"/>
    <path d="M1928.7,1315.13c.32,2.34-3.37,2.79-3.62,.44-.32-2.34,3.37-2.79,3.62-.44Z" style="fill: #f4d4be;"/>
    <path d="M1930.12,1439.18s18.56,33.3,20.98,60.19c2.12,23.49-20.98,40.32-20.98,40.32l37.11,3.75-3.98-87.1-33.13-17.16Z" style="fill: #ce3932;"/>
    <path d="M1877.49,1406.18c.83,2.33,3.39,3.54,5.72,2.71,2.33-.83,3.54-3.39,2.71-5.72-.83-2.33-3.39-3.54-5.72-2.71-2.33,.83-3.54,3.39-2.71,5.72Z" style="fill: #ce3932;"/>
    <path d="M1872.02,1424.87c.83,2.33,3.39,3.54,5.72,2.71,2.33-.83,3.54-3.39,2.71-5.72-.83-2.33-3.39-3.54-5.72-2.71-2.33,.83-3.54,3.39-2.71,5.72Z" style="fill: #ce3932;"/>
    <path d="M2118.4,1912.07s-55.57,43.8-111.37,51.03c2.21,5.17,4.49,10.44,6.85,15.82,38.78-6.67,84.48-29.34,113.28-51.76-3.04-5.03-5.96-10.06-8.76-15.09Z" style="fill: #7640cc;"/>
    <path d="M1804.36,1967.73c1.06,9.56,1.81,14.77,1.81,14.77,33.68,16.63,83.8,12.92,116.84,4.5-.84-5.25-1.63-10.47-2.37-15.64h0c-.89,.28-58.23,17.65-116.27-3.63Z" style="fill: #7640cc;"/>
    <path d="M1907.45,1980l14.24-1.49c-.36-2.4-.71-4.79-1.05-7.16h0c-26.12-181.73-5.81-308.93-5.81-308.93-.47,2.12-8.65,10.37-15.02,42.58-6.37,32.22-10.9,172.54,7.64,274.99Z" style="fill: #7640cc;"/>
    <path d="M1673.79,1390.55c3.8-.42,4.2-5.85,7.46-7.24,3.26-1.39,5.6,1.08,9.44-.12,3.84-1.2,3.21-5.24,4.97-8.47,1.72-3.16,8.28-.82,8.54-.73-3.67-3.69-6.88-6.26-9.33-6.96,0,0-7.95,10.77-20.65,11.32,0,0-1.16,3.52-.42,12.2Z" style="fill: #a523a2;"/>
    <path d="M2107.77,1930.94c.54,0,1.08-.16,1.56-.46,1.41-.89,1.84-2.75,.95-4.16-.54-.85-53.78-86.6-71.99-189.59-18.34-103.77-46.02-199.74-46.29-200.7-.46-1.6-2.14-2.52-3.74-2.06-1.6,.46-2.52,2.14-2.06,3.74,.28,.95,27.87,96.63,46.15,200.07,18.41,104.18,72.27,190.88,72.82,191.75,.58,.93,1.58,1.43,2.6,1.41Z" style="fill: #7640cc;"/>
    <path d="M2076.99,1951.38c.5,0,1-.14,1.46-.4,1.45-.83,1.95-2.67,1.12-4.12-.34-.6-34.64-61.25-60.75-176.64-26.26-116.03-58.76-225.79-59.08-226.88-.47-1.6-2.15-2.51-3.75-2.03-1.6,.47-2.51,2.15-2.03,3.75,.32,1.09,32.77,110.67,58.98,226.5,26.33,116.37,61.06,177.71,61.41,178.31,.56,.98,1.6,1.53,2.66,1.52Z" style="fill: #7640cc;"/>
    <path d="M2037.81,1965.67c-.8-2.23-79.8-224.5-96.36-327.95-5.3-33.1-14.11-89.03-13.62-91.78,.29-1.64,1.86-2.74,3.5-2.44,1.49,.27,2.53,1.58,2.49,3.05,.04,.95,.8,10.28,13.59,90.23,16.47,102.9,95.29,324.65,96.08,326.87,.56,1.57-.26,3.3-1.83,3.86-.32,.11-.65,.17-.97,.18-1.25,.02-2.44-.76-2.88-2Zm-104.03-418.68s0,0,0,0c0,0,0,0,0,0Zm0-.01s0,0,0,0c0,0,0,0,0,0Zm.04-.49h0s0,0,0,0Z" style="fill: #7640cc;"/>
    <path d="M1890.18,1987.71c.13,0,.26-.01,.4-.03,1.65-.24,2.79-1.77,2.55-3.42-5.06-34.86-15.13-175.98-14.18-240.52,.93-62.94,27.24-188.33,27.51-189.59,.34-1.63-.7-3.23-2.33-3.58-1.63-.34-3.23,.7-3.58,2.33-.27,1.26-26.7,127.22-27.64,190.75-.95,64.78,9.17,206.46,14.24,241.48,.22,1.52,1.53,2.6,3.02,2.58Z" style="fill: #7640cc;"/>
    <path d="M1858.35,1988.13c.14,0,.28-.01,.43-.04,1.65-.26,2.77-1.8,2.52-3.45-.18-1.15-17.86-116.17-13.79-211.4,4.08-95.31,28.67-217.12,28.92-218.34,.33-1.63-.72-3.23-2.36-3.56-1.63-.33-3.23,.72-3.56,2.36-.25,1.22-24.94,123.51-29.03,219.29-4.1,95.84,13.68,211.43,13.86,212.59,.23,1.5,1.54,2.57,3.02,2.55Z" style="fill: #7640cc;"/>
    <path d="M1828.74,1979.56c.12,0,.24,0,.35-.03,1.65-.22,2.82-1.73,2.6-3.38-.15-1.18-15.39-119.66-11.36-218.39,4.03-98.6,34.94-201.67,35.25-202.7,.48-1.59-.42-3.28-2.01-3.76-1.6-.48-3.28,.42-3.76,2.01-.31,1.04-31.45,104.81-35.51,204.2-4.05,99.26,11.25,218.23,11.4,219.42,.2,1.53,1.52,2.65,3.03,2.63Z" style="fill: #7640cc;"/>
    <path d="M2005.1,1517.67s-91.82,40.73-168.85,21.42c0,0-3.75,5.34-.39,14.12,0,0,58.33,31.58,174.38-17.85,0,0,.7-10.63-5.14-17.69Z" style="fill: #7640cc;"/>
    <path d="M1851.83,1292.12c.16,0,.33-.05,.47-.14,4.12-2.71,7.88-1.66,7.92-1.65,.45,.13,.93-.13,1.07-.58,.13-.46-.13-.93-.58-1.07-.18-.05-4.56-1.28-9.34,1.86-.4,.26-.51,.79-.25,1.19,.17,.25,.44,.39,.72,.39Z" style="fill: #c16256;"/>
    <path d="M1879.82,1294.4c.23,0,.46-.09,.63-.28,.32-.35,.3-.89-.05-1.22-.19-.17-4.64-4.21-10.57-3.5-.47,.06-.81,.48-.75,.96,.06,.47,.48,.81,.96,.75,5.14-.61,9.16,3.02,9.2,3.06,.16,.15,.37,.23,.58,.23Z" style="fill: #c16256;"/>
    <path d="M1863.83,1321.62c7.47,0,10.56-4.99,10.7-5.21,.24-.41,.11-.94-.29-1.18-.41-.24-.93-.11-1.18,.29-.14,.22-3.18,5.02-10.72,4.31-.48-.04-.89,.3-.94,.78-.04,.47,.3,.89,.78,.94,.57,.05,1.13,.08,1.66,.08Z" style="fill: #c16256;"/>
    <path d="M1687.57,1367.88s.04,0,.06,0c2.14-.03,3.84-1.78,3.81-3.92,0-.61-.29-15.06-8.37-30.04-1.01-1.88-3.36-2.59-5.25-1.57-1.88,1.02-2.59,3.36-1.57,5.25,7.14,13.24,7.44,26.34,7.45,26.48,.04,2.12,1.76,3.81,3.87,3.81Z" style="fill: #f99370;"/>
    <path d="M2167.36,1839.7c-.12,6.41-2.6,12.79-7.43,17.71-9.85,10.05-25.9,10.46-36.26,.93l-533.37-491.01-160.68-147.92,15.04-15.36,62.29-63.6,151.22,157.59,501.95,523.09c4.97,5.18,7.38,11.9,7.24,18.57Z" style="fill: #23659b;"/>
    <path d="M2167.36,1839.7c-9.9,7.76-24.19,7.38-33.69-1.36l-533.37-491.01-155.64-143.28,62.29-63.6,151.22,157.59,501.95,523.09c4.97,5.18,7.38,11.9,7.24,18.57Z" style="fill: #3a72aa;"/>
    <path d="M1506.95,1140.45s12.87-112.46-77.34-140.77c-90.21-28.32-136.1,36.78-209.29-46.02,0,0-34.38,287.81,209.29,265.75l77.34-78.95Z" style="fill: #7640cc;"/>
    <path d="M1874.74,1578.38c.09,1.32,1.23,2.32,2.55,2.24h.17c1.07-.08,2.14-.18,3.21-.23,1.07,0,2.13-.09,3.19-.03,1.92,.02,3.83,.21,5.7,.45-4.88,5.46-11.38,9.56-11.38,9.61-1.29,.52-2.61,1.03-3.91,1.53-2.38,.9-4.78,1.78-7.2,2.62-4.83,1.68-9.71,3.23-14.64,4.65h0c-1.15,.33-1.9,1.48-1.71,2.69,.21,1.31,1.44,2.21,2.75,2,5.15-.81,10.29-1.77,15.41-2.86,2.56-.54,5.11-1.13,7.66-1.75,1-.25,2-.5,2.99-.75,.02,.04,.04,.08,.06,.12-2.43,1.63-4.88,3.21-7.37,4.75-2.79,1.73-5.63,3.39-8.5,4.99-2.86,1.61-5.79,3.09-8.73,4.54l-.05,.03c-1.09,.54-1.62,1.83-1.18,3,.47,1.24,1.85,1.87,3.09,1.4,3.17-1.19,6.32-2.43,9.41-3.8,3.1-1.35,6.17-2.77,9.2-4.27,2.99-1.47,5.95-3,8.87-4.59,.02,.02,.03,.03,.05,.04-.84,.79-1.68,1.58-2.55,2.34-1.96,1.73-3.97,3.42-6.06,5.02-2.08,1.6-4.21,3.17-6.4,4.63-2.18,1.49-4.43,2.87-6.71,4.22l-.05,.03c-1.03,.61-1.47,1.91-.97,3.04,.54,1.21,1.96,1.76,3.17,1.22,2.52-1.12,5.04-2.27,7.49-3.55,2.47-1.25,4.88-2.62,7.26-4.04,2.39-1.42,4.71-2.94,7.01-4.53,1.15-.79,2.28-1.62,3.41-2.46,.51-.39,1-.76,1.5-1.15,.03,.02,.06,.03,.1,.05-.44,.55-.88,1.11-1.33,1.66-1.36,1.63-2.8,3.23-4.28,4.8-1.48,1.57-3.01,3.1-4.58,4.6-1.57,1.51-3.18,2.97-4.82,4.42l-.02,.02c-.88,.78-1.08,2.11-.42,3.12,.73,1.11,2.22,1.42,3.33,.69,1.88-1.23,3.75-2.49,5.59-3.81,1.84-1.31,3.66-2.67,5.44-4.08,1.78-1.42,3.54-2.88,5.26-4.41,.86-.77,1.71-1.55,2.55-2.37l1.26-1.25c.16-.16,.31-.32,.46-.48,2.39-.99,10.54-5.17,19.29-18.82,2.87-4.47-3.23-17.5-8.15-19.22-5.54-1.94-14.37-.5-16.74-.06-1.26-.11-2.51-.17-3.76-.19-2.39,.01-4.77,.11-7.11,.42-1.17,.11-2.33,.36-3.49,.53-1.15,.22-2.29,.49-3.43,.73-1.15,.24-1.97,1.3-1.89,2.5Z" style="fill: #f99370;"/>
    <path d="M1964.41,1386.77c22.98,29.75,47.84,61.17,54.83,99.56,12.49,52.05-26.76,80.55-69.94,96.51-9.6,3.88-19.01,7.43-28.11,11.23-5.97,2.54-12.88-.28-15.38-6.27-2.25-5.39-.17-11.5,4.65-14.48,8.88-5.49,17.78-10.56,26.29-15.7,20.32-12.88,51.91-29.53,41.07-57.12-8.71-33.53-35.13-56.69-57.03-82.2-22.87-29.57,22.64-62.61,43.62-31.55Z" style="fill: #f99370;"/>
    <path d="M2029.27,1458.33c20.25,66.32-21.78,105.95-52.45,121.57-15.91,8.1-29.9,11.4-39.69,12.71-9.09,1.22-14.55,.71-14.55,.71,.91-14.21-9.29-21.04-9.29-21.04-.23-3.76,2.26-8.11,6.28-12.74,13.24-15.24,37.62-30.29,39.81-46.63,2.88-21.51-6.32-49.82-29.27-73.72-30.82-32.09-22.29-57.68-22.29-57.68,0,0,1.17-12.75,19.65-17.51,21.15-5.45,77.99,16.4,101.79,94.33Z" style="fill: #eb5648;"/>
    <path d="M1919.58,1559.53c2.74,4.43-1.28,6.69-.02,10.08,1.25,3.4,8.54,1.98,8.75,5.44,.22,3.46-4.16,7.59,1.97,9.92,5.98,2.26,6.82,7.39,6.86,7.64-9.09,1.22-14.77,.98-14.77,.98,.91-14.21-9.53-21.46-9.53-21.46-.23-3.76,2.72-7.95,6.74-12.59Z" style="fill: #ce3932;"/>
    <path d="M1927.48,1364s3.14,10.45-6.56,15.17c-9.69,4.72-5.11,15.65-16.97,16.87-11.86,1.22-13.93-10.09-24.85-3.16-11.78,7.47-18.7-3.19-15.79-9.54,2.91-6.35-6.84-4.07-3.85-13.17,0,0,10.11-7.55,17.69-2.56,0,0,1.98,9.92,9.22,10.58,4.75,.44,16.65-6.89,22.95-12.56,0,0,9.46-5.05,18.16-1.63Z" style="fill: #ce3932;"/>
    <path d="M1662.65,1433.31c-6.95,6.2-13.84-3.57-3.78-5.19l-.12,.1c3.81-3.29,7.55,2.09,3.91,5.09Z" style="fill: #f99370;"/>
    <path d="M1657.39,1429.9c-9.13,5.51-12.45-7.04-3.28-5.79-.2,.02,.85-.26,.67-.23,4.44-2.49,6.57,3.93,2.61,6.02Z" style="fill: #f99370;"/>
    <path d="M1651.77,1426.49l-3.45,.84c-4.86,1-4.56-6.17-.49-6.89,0,0,3.45-.84,3.45-.84,4.86-1,4.56,6.17,.49,6.89Z" style="fill: #f99370;"/>
    <path d="M1647.34,1422.77l-3.45,.84c-4.86,1-4.56-6.17-.49-6.89,0,0,3.45-.84,3.45-.84,4.86-1,4.56,6.17,.49,6.89Z" style="fill: #f99370;"/>
    <path d="M1448.04,1205.59c-.14,0-.28,0-.42-.02-3.98-.33-97.91-8.69-143.9-59.41-45.67-50.37-56.7-116.68-57.15-119.48-.44-2.73,1.42-5.29,4.15-5.73,2.73-.44,5.29,1.42,5.73,4.15,.11,.65,11.07,66.23,54.68,114.34,43.32,47.78,136.39,56.09,137.32,56.16,2.75,.23,4.8,2.65,4.57,5.4-.22,2.61-2.4,4.58-4.98,4.58Z" style="fill: #9358e0;"/>
    <path d="M1467.77,1185.44c-.8,0-1.6-.19-2.36-.59-60.71-32.49-118.64-91.41-119.22-92-1.93-1.97-1.89-5.14,.08-7.07,1.97-1.93,5.14-1.89,7.07,.08,.57,.58,57.45,58.42,116.78,90.18,2.43,1.3,3.35,4.33,2.05,6.77-.9,1.68-2.63,2.64-4.41,2.64Z" style="fill: #9358e0;"/>
    <path d="M1485.91,1166.93c-2.23,0-4.27-1.51-4.84-3.77-.1-.38-10.15-38.8-41.21-77.98-33.7-42.5-100.7-47.69-101.37-47.74-2.75-.19-4.83-2.58-4.64-5.34,.19-2.75,2.59-4.82,5.34-4.64,2.93,.21,72.1,5.58,108.5,51.5,32.46,40.95,42.65,80.08,43.07,81.73,.68,2.68-.94,5.4-3.62,6.08-.41,.1-.83,.15-1.23,.15Z" style="fill: #9358e0;"/>
    <polygon points="1506.95 1140.45 1658.17 1298.03 1590.29 1367.33 1429.61 1219.4 1506.95 1140.45" style="fill: #1d3f70;"/>
  </g>
  <g id="_1" data-name="1">
    <path d="M519.83,1245.74s-20.22,22.03-3.85,47.56l22.07-7.18-18.22-40.38Z" style="fill: #f99370;"/>
    <path d="M670.37,1390.8c27.57-14.08,117.06-57.49,126.82-86.75,6.33-20.92,4.05-45.91,.92-67.97-.42-8.28-7.63-22.07,4.33-24.94,7.32-1.44,10.19,6.16,12.96,11.28,44.06,83.58,.4,158.03-80.83,199.13-14.11,7.88-28.59,15.14-43.67,21-34.06,12.54-53.92-37.55-20.54-51.76Z" style="fill: #f99370;"/>
    <path d="M776.06,1187.16s31.21-4.01,37.2,31.17l-19.59,7.78-17.61-38.95Z" style="fill: #f99370;"/>
    <path d="M780.28,2041.19l-71.56-2.81c-6.23-.5-5.94-6.86-4.59-11.75,4.64-17.63-.72-60.75-1.29-79.09-.21-3.36,2.53-6.17,5.91-6.04l31.58,1.24c3.42,.13,5.95,3.24,5.39,6.61l-7.54,45.51c-3.21,20.83,19,25.86,33.13,29.2,5.6,1.65,11.44,4.08,14.03,8.41,2.43,3.88-.47,8.89-5.05,8.71Z" style="fill: #f99370;"/>
    <path d="M701.24,2030.65c.05,3.51,1.64,7.58,5.71,7.65,0,0,74.23,2.92,74.23,2.92,3.84,.16,6.71-3.58,5.49-7.21-2.56-8.21-14.02-21.37-46-25.15-5.03-.6-19.28,3.74-34.67-.85,0,0-5.85,9.36-4.75,22.65Z" style="fill: #1d3f70;"/>
    <path d="M763.87,2030.49c-.2,0-.4-.05-.59-.14-.79-.36-1.15-1.29-.79-2.09,3.71-8.2,10.14-10.53,10.41-10.62,.83-.28,1.72,.15,2.01,.97,.29,.82-.14,1.72-.96,2.01h0c-.22,.08-5.45,2.03-8.58,8.95-.27,.6-.88,.95-1.5,.93Z" style="fill: #e8c0a6;"/>
    <path d="M751.67,2028.53c-.15,0-.31-.03-.46-.09-.82-.29-1.25-1.19-.96-2.01,3.28-9.27,11.45-13.2,11.79-13.36,.79-.37,1.73-.03,2.1,.75,.37,.79,.04,1.72-.75,2.1-.07,.03-7.34,3.56-10.16,11.56-.24,.67-.88,1.08-1.55,1.05Z" style="fill: #e8c0a6;"/>
    <path d="M737.79,2026.27c-.17,0-.35-.04-.52-.11-.81-.32-1.21-1.23-.89-2.04,3.68-9.36,11.31-14.06,11.63-14.26,.74-.45,1.71-.22,2.17,.53,.45,.74,.22,1.71-.53,2.17-.07,.04-7.06,4.38-10.33,12.72-.25,.64-.88,1.02-1.53,1Z" style="fill: #e8c0a6;"/>
    <path d="M786.66,2034.01l-85.42-3.36c.21,2.62,.83,5.17,2.05,7.51l77.88,3.06c3.78,.15,6.64-3.47,5.53-7.08-.01-.04-.03-.09-.04-.13Z" style="fill: #10325b;"/>
    <path d="M755.98,1976.67c-2.9,9.43-4.76,14.91-4.76,14.91,0,0-30.91,12.65-59.52,1.4,0,0,.14-2.07,.39-5.82,.02-.44,.06-.91,.09-1.4,.1-1.47,.2-3.16,.32-5.04,2.51-40.06,7.66-157.99,5.36-187.65-2.96-38.11-17.81-70.41-33.91-93.1-5.59-7.86-11.32-14.57-16.77-19.97-31.97-31.71-65.63-30.53-53.8-86.14,1.74-8.18,74-4.59,74-4.59l81.54,13.14s35.94,87.74,42.61,170.58c5.33,66.27-24.43,167.5-35.55,203.68Z" style="fill: #1d3f70;"/>
    <path d="M704.19,1987.15h-12.1c.02-.44,.06-.91,.09-1.4,.1-1.47,.2-3.16,.32-5.04,2.51-40.06,7.66-157.99,5.36-187.65-2.96-38.11-17.81-70.41-33.91-93.1l1.83-21.9s31.24,44.29,39.24,84.63c8,40.36-.82,224.46-.82,224.46Z" style="fill: #103663;"/>
    <path d="M755.99,1976.67c-2.9,9.43-4.76,14.91-4.76,14.91,0,0-30.92,12.65-59.53,1.4,0,0,.31-4.53,.79-12.26h.01s33.15,9.66,63.49-4.05Z" style="fill: #103663;"/>
    <path d="M395.95,1948.24l-24.11-67.43c-1.1-3.08,.61-6.43,3.74-7.38,16.31-2.12,39.69-13.35,54.56-20.52,0,0,19.42,31.33,16.08,32.08l-36.26,14.82c-6.46,6.85-5.09,4.24-4.08,14.29,.75,12.82,6.28,25.06,.05,35.57-2.69,3.7-8.42,2.88-9.97-1.43Z" style="fill: #f99370;"/>
    <path d="M376.2,1870.98c-3.24,1.36-6.42,4.35-4.97,8.15l25.01,69.95c1.29,3.62,5.82,4.89,8.74,2.4,6.66-5.44,15.42-18.16,5.46-51.87-2.16-4.58-8.55-16.15-12.03-32.58,0,0-10.3-2.02-22.22,3.96Z" style="fill: #1d3f70;"/>
    <path d="M399.74,1929.02c-.07-.19-.1-.39-.09-.6,.04-.87,.77-1.55,1.64-1.51,9,.38,13.55,5.47,13.74,5.69,.57,.66,.51,1.65-.15,2.23-.65,.57-1.64,.51-2.22-.14h0c-.16-.18-3.92-4.3-11.5-4.62-.66-.03-1.21-.46-1.42-1.05Z" style="fill: #e8c0a6;"/>
    <path d="M397.01,1916.97c-.05-.15-.08-.3-.09-.46-.04-.87,.64-1.61,1.51-1.64,9.82-.42,16.52,5.69,16.8,5.95,.64,.6,.68,1.59,.09,2.23-.59,.64-1.59,.68-2.23,.09-.06-.06-6.05-5.48-14.52-5.11-.71,.03-1.33-.41-1.55-1.05Z" style="fill: #e8c0a6;"/>
    <path d="M393.92,1903.26c-.06-.16-.09-.34-.09-.52,0-.87,.69-1.58,1.56-1.59,10.06-.08,17.27,5.24,17.57,5.46,.7,.52,.84,1.51,.32,2.21-.52,.7-1.51,.84-2.21,.32-.07-.05-6.7-4.91-15.66-4.84-.69,0-1.28-.43-1.5-1.05Z" style="fill: #e8c0a6;"/>
    <path d="M738.64,1987.52l-3.8-.74c.3-1.55,30.19-155.38,26.68-222.05-3.5-66.53-44.71-158.67-45.13-159.59l3.53-1.59c.42,.93,41.92,93.72,45.46,160.98,3.53,67.14-26.44,221.44-26.75,222.99Z" style="fill: #103663;"/>
    <path d="M404.99,1951.47l-28.78-80.49c-1.51,.75-2.93,1.66-4.21,2.74-1.24,1.05-1.7,2.77-1.15,4.3l25.41,71.06c1.27,3.56,5.7,4.86,8.63,2.48,.03-.03,.07-.06,.1-.09Z" style="fill: #10325b;"/>
    <path d="M693.67,1607.42c-23.04,87.28-41.33,155.24-107.76,222.41-43.75,44.24-111.95,64.85-141.07,69.29-9.82,1.49-15.74,1.89-15.74,1.89,0,0-29.49-24.89-18.94-62.04,0,0,4.96-1.39,12.75-3.95,24.33-7.97,74.66-28.46,91.86-50.88,53.81-70.19,28.88-129.6,56.05-190.97l122.85,14.26Z" style="fill: #1d3f70;"/>
    <path d="M444.84,1899.11c-9.82,1.49-15.74,1.89-15.74,1.89,0,0-29.49-24.89-18.94-62.04,0,0,4.96-1.39,12.75-3.95,0,0-3.95,40.46,21.92,64.1Z" style="fill: #103663;"/>
    <path d="M677.3,1385.38c1.8-15.62-.66-38.22-2.84-47.44-3.93-18.29-32.98-11.21-28.15,6.77,.94-.59,3.93,32.56,1.86,41.76-27.26,8.17,54.72,35.02,29.12-1.09Z" style="fill: #f99370;"/>
    <path d="M646.03,1343.2c.03,.21,.06,.43,.1,.64,.05,.3,.11,.58,.18,.87,.68-.45,2.57,17.84,2.58,31.12,12.49,5.67,26.38,3.09,28.93,2.57,.56-14.03-1.59-31.35-2.73-37.85-.34-1.53-.58-2.42-.62-2.6-.1-.41-.22-.82-.35-1.21-1.39-4.16-4.55-7.32-8.41-8.85h0c-2.68-1.05-5.7-1.31-8.71-.59-2.98,.72-5.52,2.32-7.41,4.45-.08,.08-.16,.18-.24,.26-2.55,3.03-3.85,7.06-3.3,11.2Z" style="fill: #e57d61;"/>
    <path d="M695.26,1309.37s-2.77-15.39-9.32-25.24l-8.12,5.76,17.44,19.48Z" style="fill: #8e4a35;"/>
    <path d="M702.85,1354.48c-8.76,12.36-24.46,18.01-37.85,17.33-4.17-.15-8.24-.94-12.01-2.52h0c-1.27-.53-2.5-1.14-3.68-1.83h-.02c-57.31-41.58-3.6-133.61,38.43-67.74,13.56,18.27,33.26,26.04,15.14,54.76Z" style="fill: #f99370;"/>
    <path d="M672.08,1659.12c-.06,0-.11,0-.13,0-.54-.02-1.04-.27-1.39-.67-.35-.41-.51-.94-.45-1.47l2.97-26.71c.12-1.06,1.08-1.82,2.14-1.71,1.06,.12,1.83,1.08,1.71,2.14l-2.66,23.91c.77-.4,1.68-1.03,2.65-2.04,4.02-4.22,8.55-14.54,7.3-39.73-.05-1.07,.77-1.98,1.84-2.03,1.06-.06,1.98,.77,2.03,1.84,1.34,26.91-3.94,38.16-8.61,42.85-3.41,3.43-6.63,3.65-7.4,3.65Z" style="fill: #103663;"/>
    <path d="M675.1,1317.72c.34-1.05-.24-2.18-1.29-2.51-1.05-.34-2.18,.24-2.52,1.3-.34,1.05,.24,2.18,1.3,2.51,1.05,.34,2.18-.24,2.52-1.3Z" style="fill: #c16256;"/>
    <path d="M426.79,1884.66l-.85-3.78c.92-.21,92.34-21.19,141.98-64.87,51.35-45.18,68.05-141.6,80.25-212l3.82,.66c-12.29,70.97-29.13,168.16-81.5,214.25-50.39,44.34-142.76,65.53-143.69,65.74Z" style="fill: #103663;"/>
    <path d="M691.26,1312.25c.34-1.05-.24-2.18-1.3-2.51-1.05-.34-2.18,.24-2.52,1.3-.34,1.05,.24,2.18,1.3,2.51,1.05,.34,2.18-.24,2.52-1.3Z" style="fill: #c16256;"/>
    <path d="M688.88,1330.17c-1.14,.33-2.33,.45-3.38,.3-.41-.06-.7-.45-.64-.86,.06-.42,.45-.69,.86-.64,2.64,.4,5.98-1.43,6.29-2.65,.11-.43-.49-.73-1.02-.92-4.61-1.61-8.75-9.16-8.92-9.48-.2-.37-.06-.83,.3-1.03,.38-.21,.83-.06,1.03,.3,.04,.07,4.03,7.36,8.09,8.77,2.21,.77,2.13,2.15,1.99,2.71-.36,1.46-2.38,2.84-4.6,3.48Z" style="fill: #c16256;"/>
    <path d="M684.63,1295.19c-11.63-3.9-30.22,4.39-39.77,5.87,0,0,4.68,15.98-9.9,30.27,1.05,15.22-.36,22.17,18.02,37.96h0c-1.27-.53-2.5-1.14-3.68-1.83h-.02c-55.11-39.57-6.46-130.31,35.35-72.26Z" style="fill: #e57d61;"/>
    <path d="M687.44,1261.38c-8.12-11.12-27.43-14.75-40.74,2.8-10.25,13.51-23.35,15.55-21.11,27.65-22.53,14.99-6.1,39.82-6.1,39.82l11.95-3.42c12.09-13.53,8.98-30.02,8.98-30.02h0c3.13-.35,6.38-1.02,9.15-2.23,8.6-3.75,21.69-7.02,32.42-4.94,10.72,2.08,14.52-17.22,5.45-29.65Z" style="fill: #8e4a35;"/>
    <path d="M619.36,1341.75c2.34,6.04,8.18,9.42,13.05,7.54,4.87-1.88,6.92-8.3,4.59-14.35-2.34-6.04-8.18-9.42-13.05-7.54-4.87,1.88-6.92,8.3-4.59,14.35Z" style="fill: #f99370;"/>
    <path d="M629.98,1331.52c-.21-.04-5.12-1.08-7.33,1.75-.56,.72-.87,1.62-.95,2.67,0,0,0,0,0,0,0,.1-.03,.19-.03,.29,0,0,0,0,0,0,0,0,0,0,0,0-.07,1.94,.63,4.42,2.09,7.4,.16,.33,.54,.49,.89,.39,.04-.01,.08-.03,.13-.05,.37-.18,.53-.64,.35-1.01-1.19-2.42-1.82-4.44-1.92-6.03,4.43,.07,7.38,4.54,7.41,4.59,.18,.29,.53,.41,.85,.32,.07-.02,.13-.05,.2-.09,.35-.22,.46-.69,.24-1.04-.14-.22-3.37-5.23-8.58-5.34,.11-.45,.27-.86,.53-1.18,1.62-2.08,5.78-1.21,5.81-1.2,.41,.09,.81-.17,.9-.58,.09-.41-.17-.81-.58-.9Z" style="fill: #c16256;"/>
    <path d="M750.24,1589.84c-.29,4.61-.73,8.84-1.32,12.57,0,0-94.3,29.67-178.11-9.25-4.11-19.31-.39-33.36,9.56-72.12,6.23-21.78,5.93-64.9,7.63-75.66,9.55-52.4,43.41-54.53,60.3-60,8.66,22.07,34.07,16.11,29.02,.02,72.81,18.62,73.56,133.87,72.92,204.44Z" style="fill: #ce4abf;"/>
    <path d="M665.77,1316.08c-.14,0-.28-.03-.41-.09-.48-.23-.69-.8-.46-1.28,.12-.25,2.99-6.18,9.43-7.36,.53-.09,1.03,.25,1.12,.77,.1,.52-.25,1.03-.77,1.12-5.48,1.01-8.01,6.24-8.04,6.29-.16,.35-.51,.55-.87,.55Z" style="fill: #c16256;"/>
    <path d="M691.35,1307.16c-.13,0-.27-.03-.39-.08-4.39-1.97-7.79-.12-7.93-.04-.46,.26-1.05,.1-1.31-.37-.26-.46-.1-1.05,.36-1.31,.17-.1,4.36-2.43,9.67-.04,.49,.22,.7,.79,.48,1.27-.16,.36-.51,.57-.88,.57Z" style="fill: #c16256;"/>
    <path d="M596.44,1625.94c-.15,0-.29-.02-.44-.05-24-5.58-23.43-21-23.4-21.65,.03-.61,.35-1.17,.86-1.51,.51-.34,1.15-.42,1.72-.21,22.79,8.16,46.16,12.41,46.39,12.45,1.05,.19,1.75,1.2,1.56,2.25-.19,1.05-1.2,1.75-2.25,1.56-.23-.04-21.92-3.99-44.04-11.57,1.08,4.04,5.1,11.43,20.02,14.9,1.04,.24,1.69,1.28,1.45,2.33-.21,.89-1.01,1.5-1.89,1.5Z" style="fill: #103663;"/>
    <path d="M745.61,1438.92h0c-3.76,2.11-7.5,4-11.18,5.65-2.02,.92-4.03,1.76-6.01,2.52l-51.11-61.7c15.16-12.13,103.29-54.5,113.79-78.45,5.81-10.42,9.98-49.3,6.72-73.43,.21,0,9.7-.06,17.74-10.8,9.82,17.69,20.14,38.79,26.54,72.95,12.2,44.62-44.36,114.11-96.49,143.26Z" style="fill: #ce4abf;"/>
    <path d="M820.22,1231.36c-9.54,11.21-21.62,10.08-21.62,10.08-.2-2.69-.46-5.42-.78-7.94,0,0,9.61,.06,17.74-10.8,0,0,1.85,3.11,4.66,8.66Z" style="fill: #a523a2;"/>
    <path d="M750.24,1589.84c-.29,4.61-.73,8.84-1.32,12.57,0,0-94.3,29.67-178.11-9.25,0,0-1.63-3.65-1.65-12.52,0,0,41.42,17.5,90.8,20.76,29.04,1.91,65.32-5.3,90.28-11.56Z" style="fill: #a523a2;"/>
    <path d="M895.6,1119.67c1.55,10.08-5.06,19.96-15.62,23.13-17.51,5.25-32.36,16.73-42.42,32.01-.77,1.17-1.58,2.33-2.43,3.47-10.9,14.64-27.83,26.23-48.42,31.61l-36.96,9.38-173.85,44.12-87.02,22.07-32.82-165.01,88.85-12.89,177.5-25.77,37.74-5.47c22.78-3.14,44.36,2.06,60.5,13.04,15.08,10.25,33.18,15.11,51.32,13.27h.03c5.63-.58,10.97,.88,15.17,3.79,4.2,2.9,7.25,7.24,8.28,12.42,.05,.28,.11,.56,.15,.84Z" style="fill: #f4d4be;"/>
    <polygon points="575.9 1263.39 544.91 1107.56 722.41 1081.8 749.75 1219.27 575.9 1263.39" style="fill: #3a72aa;"/>
    <path d="M458.04,1280.15l-29.81-141.81c-.93-4.45,.92-9.02,4.69-11.56l24.68-16.61c6.61-4.45,15.63-.74,17.18,7.08l32.51,163.45c1.54,7.74-5.21,14.58-12.97,13.16l-27.38-5.03c-4.46-.82-7.97-4.25-8.91-8.68Z" style="fill: #d1a68f;"/>
    <path d="M895.6,1119.67c1.55,10.08-5.06,19.96-15.62,23.13-15.01-19.3-8.01-40.18-8.01-40.18h.03c5.63-.58,10.97,.88,15.17,3.79,4.2,2.9,7.25,7.24,8.28,12.42,.05,.28,.11,.56,.15,.84Z" style="fill: #1d3f70;"/>
    <path d="M796.84,1228.09c-10.27-2.6-16.62-11.05-19.56-19.39-.89-2.49-2.37-6.35,1.12-7.45,1.51-.45,3.1,.26,3.78,1.63,2.86,6.83,8.63,12.84,15.84,14.71,6.66,1.97,5.42,12.67-1.18,10.5Z" style="fill: #f99370;"/>
    <path d="M533.13,1294.06c11.2-10.67,7.15-26.14,2.57-33.71-1.36-2.27-3.4-5.86-6.47-3.86-1.31,.88-1.76,2.56-1.14,3.96,3.46,6.54,4.46,14.82,1.32,21.58-2.7,6.4,3.71,12.04,3.71,12.04Z" style="fill: #f99370;"/>
    <path d="M628.59,1443.21c-131.75,3.64-172.65-36.62-109.93-160.57,4.19-8.1,17.24-3.47,15.48,5.37-.06,.18-1.15,6.98-1.2,7.2-2.78,23.3-12.94,69.3-.4,88.63,28.89,11.54,62.42,7.66,93.17,7.17,33.95-.95,36.72,49.39,2.88,52.2Z" style="fill: #f99370;"/>
    <path d="M656.08,1427.69c.34,13.27-18.44,41.61-53.84,42.64-4.66,.13-10-.33-15.79-1.35-16.91-2.96-37.56-10.63-55.72-21.89t-.02,0c-22.83-14.15-41.7-33.97-44.16-57.18-3.87-36.34,13.09-72.57,21.56-88.04h.01c2.72-4.97,4.56-7.79,4.56-7.79,14.04-1.37,19.91,3.91,19.91,3.91,0,0,.03,2.94,.12,7.73,.18,10,.64,28.05,1.69,44.11,1.55,23.74,15.3,35.48,56.56,33.44,41.26-2.04,57.35,2.13,57.35,2.13,0,0,7.43,29.02,7.77,42.3Z" style="fill: #ce4abf;"/>
    <path d="M532.71,1305.71c-13.85-5.7-24.18-3.92-24.59-3.85,2.72-4.97,4.56-7.79,4.56-7.79,14.04-1.37,19.91,3.91,19.91,3.91,0,0,.03,2.94,.12,7.73Z" style="fill: #a523a2;"/>
    <path d="M591.26,1437.39c-3.83,16.34-4.81,31.59-4.81,31.59-16.91-2.96-37.56-10.63-55.72-21.89,42.1,15.06,60.53-9.7,60.53-9.7Z" style="fill: #a523a2;"/>
    <path d="M745.61,1438.92h0c-3.76,2.11-7.5,4-11.18,5.65h0c-3.58-10.94-12.93-26.34-13.22-26.82,16.83,9.19,24.4,21.17,24.4,21.17Z" style="fill: #a523a2;"/>
    <path d="M691.62,1339.51l-16.33-7.33s-.51,8.73,5.91,10.77c6.13,1.95,10.42-3.44,10.42-3.44Z" style="fill: #f9f8f3;"/>
    <path d="M691.74,1340.19c-.13,.02-.27,0-.4-.05l-16.33-7.33c-.35-.16-.51-.57-.35-.92,.16-.35,.57-.51,.92-.35l16.33,7.33c.35,.16,.51,.57,.35,.92-.1,.22-.3,.36-.52,.4Z" style="fill: #c16256;"/>
  </g>
</svg>